<svg width="100" height="80" viewBox="0 0 100 80" fill="none" xmlns="http://www.w3.org/2000/svg">
<path d="M100 45.3867V34.6133C93.1208 32.6567 88.775 32.1067 86.5875 27.8833C84.3917 23.6467
87.0042 20.7667 90.1167 15.5233L80.5958 7.90667C74.0917 10.38 70.4583 12.49 65.15 10.73C59.8625 8.97667 59.1667 5.47667
56.7333 0H43.2667C40.8417 5.45 40.1458 8.97333 34.8542 10.73C29.5583 12.49 25.9667 10.4033 19.4042 7.90667L9.88333
15.5233C12.9875 20.75 15.6125 23.6367 13.4125 27.88C11.2167 32.1167 6.8125 32.6733 0 34.6133V45.3867C6.8 47.32 11.2167
47.8833 13.4125 52.1167C15.6208 56.39 12.9375 59.3367 9.88333 64.4733L19.4042 72.0933C25.9125 69.6167 29.5458 67.51 34.85
 69.27C40.1417 71.0233 40.8375 74.5333 43.2667 80H56.7333C59.1583 74.5467 59.8583 71.0333 65.1792 69.26H65.1833C70.4417
 67.5133 74.0167 69.5967 80.5917 72.0967L90.1125 64.4767C87.0125 59.2667 84.3833 56.3667 86.5792 52.1233C88.775
 47.8867 93.1958 47.3233 100 45.3867ZM50 53.3333C40.7958 53.3333 33.3333 47.3633 33.3333 40C33.3333 32.6367 40.7958 26.6667
 50 26.6667C59.2042 26.6667 66.6667 32.6367 66.6667 40C66.6667 47.3633 59.2042 53.3333 50 53.3333Z" fill="#141A1E"/>
</svg>
