<svg width="120" height="119" viewBox="0 0 120 119" fill="none" xmlns="http://www.w3.org/2000/svg">
    <!--  Tech stack  -->
    <g id="css">
        <path id="Vector" d="M22.1325 101.154L13.71 7.4375H106.29L97.8562 101.139L59.9437 111.562L22.1325 101.154Z"
              fill="#1572B6"/>
        <path id="Vector_2" d="M60 103.597L90.6375 95.1739L97.845 15.1018H60V103.597Z" fill="#33A9DC"/>
        <path id="Vector_3"
              d="M60 49.054H75.3375L76.395 37.2842H60V25.7896H89.0625L88.785 28.8724L85.9387 60.5487H60V49.054Z"
              fill="white"/>
        <path id="Vector_4"
              d="M60.0713 78.9045L60.0188 78.9193L47.1113 75.4609L46.2863 66.2942H34.65L36.2738 84.3413L60.015 90.8788L60.0713 90.864V78.9045Z"
              fill="#EBEBEB"/>
        <path id="Vector_5"
              d="M74.3513 60.0615L72.9563 75.4534L60.03 78.9119V90.8714L83.79 84.3412L83.9663 82.4001L85.98 60.0615H74.3513Z"
              fill="white"/>
        <path id="Vector_6"
              d="M60.0413 25.7896V37.2842H32.0438L31.8113 34.6997L31.2825 28.8724L31.005 25.7896H60.0413ZM60 49.054V60.5487H47.2538L47.0213 57.9642L46.4963 52.1369L46.2188 49.054H60Z"
              fill="#EBEBEB"/>
    </g>
    <g id="html">
        <path d="M22.1325 102.004L13.7063 7.5H106.294L97.8563 101.989L59.9438 112.5L22.1325 102.004Z" fill="#E44F26"/>
        <path d="M60 104.468L90.6375 95.9738L97.845 15.2288H60V104.468Z" fill="#F1662A"/>
        <path d="M60 50.2763H44.6625L43.605 38.4075H60V26.8163H30.9375L31.215 29.9288L34.0613 61.8675H60V50.2763ZM60 80.3775L59.9475 80.3925L47.04 76.9088L46.215 67.665H34.5787L36.2025 85.86L59.9475 92.4525L60 92.4375V80.3775Z"
              fill="#EBEBEB"/>
        <path d="M59.9587 50.2763V61.8675H74.2312L72.8887 76.9013L59.9587 80.3888V92.4488L83.7225 85.86L83.895 83.9025L86.6175 53.3888L86.9025 50.2763H59.9587ZM59.9587 26.8163V38.4075H87.9562L88.1887 35.805L88.7175 29.9288L88.995 26.8163H59.9587Z"
              fill="white"/>

    </g>
    <g id="js">
        <path d="M7.5 7.5H112.5V112.5H7.5V7.5Z" fill="#F5DE19"/>
        <path d="M78.0338 89.5312C78.9284 91.3485 80.3183 92.8759 82.0434 93.9375C83.7684 94.9991 85.7584 95.5515 87.7838 95.5313C91.8713 95.5313 94.485 93.4875 94.485 90.6562C94.485 87.2812 91.8 86.0738 87.3 84.105L84.8325 83.0475C77.7075 80.0138 72.9825 76.215 72.9825 68.1825C72.9825 60.7838 78.6075 55.1475 87.4313 55.1475C90.2877 54.9412 93.1416 55.5805 95.637 56.9856C98.1324 58.3907 100.159 60.4994 101.464 63.0488L93.75 67.98C93.2476 66.716 92.3728 65.6345 91.2416 64.879C90.1105 64.1236 88.7764 63.7298 87.4163 63.75C86.8229 63.6906 86.2236 63.7555 85.6567 63.9404C85.0897 64.1254 84.5675 64.4265 84.1234 64.8244C83.6792 65.2224 83.3228 65.7085 83.0769 66.2518C82.831 66.7951 82.7009 67.3837 82.695 67.98C82.695 70.9388 84.5288 72.1388 88.7625 73.98L91.23 75.0375C99.615 78.6338 104.355 82.2975 104.355 90.5363C104.355 99.42 97.3763 104.287 88.005 104.287C84.3537 104.52 80.713 103.691 77.5223 101.901C74.3317 100.11 71.7274 97.4342 70.0238 94.1963L78.0338 89.5312ZM43.1775 90.3863C44.7263 93.135 46.1363 95.46 49.5263 95.46C52.7663 95.46 54.8138 94.1925 54.8138 89.2612V55.71H64.68V89.3925C64.68 99.6075 58.68 104.257 49.9463 104.257C46.8591 104.426 43.7931 103.657 41.1513 102.051C38.5096 100.444 36.4157 98.0761 35.145 95.2575L43.1775 90.3863Z"
              fill="black"/>

    </g>

    <g id="ts">
        <path d="M0.725098 44.6093V88.7878H44.9036H89.0821V44.6093V0.430794H44.9036H0.725098V44.6093Z" fill="#007ACC"/>
        <path d="M20.2648 44.9025L20.2367 48.5209L25.9869 48.5209H31.7372V64.8599L31.7372 81.199H35.8044H39.8716V64.8599V48.5209H45.6219H51.3721V44.9726C51.3721 43.0091 51.33 41.3682 51.2739 41.3261C51.2318 41.27 44.2334 41.242 35.7483 41.256L20.3069 41.2981L20.2648 44.9025Z"
              fill="white"/>
        <path d="M72.0193 41.1957C74.2633 41.7567 75.9744 42.7525 77.5451 44.3794C78.3586 45.2489 79.5647 46.8337 79.6629 47.2124C79.691 47.3246 75.8481 49.9052 73.52 51.3498C73.4358 51.4059 73.0992 51.0412 72.7206 50.4802C71.5845 48.8253 70.3924 48.11 68.5692 47.9838C65.8904 47.8015 64.1654 49.2039 64.1794 51.5461C64.1794 52.2333 64.2776 52.6401 64.5581 53.201C65.1471 54.4212 66.241 55.1505 69.6772 56.6372C76.0024 59.358 78.7092 61.1532 80.3922 63.7057C82.2715 66.5528 82.6923 71.0969 81.416 74.4769C80.0135 78.1514 76.5353 80.6478 71.6406 81.4753C70.126 81.7418 66.5356 81.6997 64.9087 81.4052C61.3604 80.7741 57.9944 79.0209 55.9187 76.7209C55.1053 75.8233 53.5204 73.4811 53.6186 73.3128C53.6607 73.2567 54.0253 73.0323 54.4321 72.7939C54.8248 72.5695 56.3114 71.714 57.7139 70.9005L60.2524 69.4279L60.7854 70.2133C61.5287 71.3493 63.1556 72.9061 64.1373 73.425C66.9563 74.9116 70.8272 74.7013 72.7346 72.9902C73.548 72.2469 73.8846 71.4755 73.8846 70.3395C73.8846 69.3157 73.7584 68.8669 73.2255 68.0955C72.5382 67.1138 71.1357 66.2863 67.1527 64.5612C62.5946 62.5977 60.6311 61.3776 58.8359 59.4421C57.798 58.3201 56.8163 56.525 56.4096 55.0243C56.073 53.7761 55.9888 50.6485 56.2553 49.3863C57.195 44.9824 60.5189 41.911 65.3154 40.9994C66.8722 40.7048 70.4906 40.817 72.0193 41.1957Z"
              fill="white"/>
    </g>

    <g id="react">
        <g clip-path="url(#clip0_2_5870)">
            <path d="M92.9056 32.7028C91.7031 32.2887 90.4904 31.9051 89.2687 31.5524C89.4739 30.7107 89.6628 29.8792 89.8306 29.0624C92.5838 15.6484 90.7839 4.84184 84.6361 1.28381C78.7416 -2.12716 69.1016 1.42955 59.3659 9.93348C58.4064 10.7731 57.4682 11.6369 56.5522 12.524C55.9389 11.9341 55.3149 11.3556 54.6803 10.7889C44.4767 1.69623 34.2493 -2.13602 28.1081 1.43221C22.2189 4.8538 20.475 15.0127 22.9538 27.7254C23.2004 28.9845 23.4788 30.2371 23.7888 31.4819C22.3412 31.8948 20.9442 32.3342 19.6073 32.802C7.64443 36.9882 0.00476074 43.5483 0.00476074 50.353C0.00476074 57.3809 8.20629 64.4301 20.6662 68.7044C21.6763 69.0495 22.6949 69.3693 23.7209 69.6635C23.3877 71.0042 23.0918 72.3541 22.8337 73.7114C20.4706 86.2035 22.316 96.1224 28.1893 99.5223C34.2555 103.033 44.437 99.4248 54.3506 90.7268C55.1545 90.0197 55.9407 89.2925 56.7084 88.546C57.7004 89.5067 58.7189 90.4394 59.7627 91.343C69.366 99.6365 78.8502 102.985 84.7177 99.5763C90.7782 96.055 92.748 85.3995 90.1907 72.4357C89.9893 71.42 89.7634 70.4094 89.5132 69.4048C90.2282 69.1921 90.93 68.9733 91.6141 68.7456C104.567 64.4385 112.995 57.4748 112.995 50.353C112.995 43.5235 105.109 36.9191 92.9056 32.7028ZM90.0963 64.1474C89.4783 64.3525 88.8445 64.5506 88.1984 64.7433C86.7683 60.1996 84.8387 55.3684 82.4769 50.3764C84.7305 45.5036 86.586 40.7341 87.9759 36.2201C89.1319 36.5558 90.2534 36.9098 91.3347 37.2832C101.791 40.8962 108.169 46.2372 108.169 50.353C108.169 54.7367 101.281 60.4277 90.0963 64.1474ZM85.4557 73.3765C86.5865 79.1087 86.7476 84.2916 85.9986 88.3436C85.3259 91.9845 83.9727 94.4116 82.299 95.3839C78.7385 97.4526 71.1235 94.7637 62.911 87.6707C61.9401 86.8305 60.9927 85.9634 60.0699 85.0704C63.2539 81.5757 66.4358 77.5131 69.5412 73.0009C75.0036 72.5145 80.1641 71.7189 84.844 70.6332C85.0694 71.5426 85.2734 72.4574 85.4557 73.3765ZM38.5257 95.0264C35.0469 96.2592 32.2759 96.2947 30.6009 95.3254C27.0369 93.2625 25.5552 85.2981 27.5762 74.6151C27.8165 73.3527 28.0916 72.0973 28.4012 70.8502C33.0294 71.8779 38.1523 72.6168 43.6275 73.0625C46.7542 77.4777 50.0278 81.5358 53.3271 85.0894C52.6259 85.7704 51.9082 86.4339 51.1745 87.0793C46.7904 90.9253 42.3974 93.6541 38.5257 95.0264ZM22.2277 64.1204C16.7181 62.2302 12.168 59.7739 9.04931 57.0934C6.24661 54.6849 4.83202 52.2932 4.83202 50.353C4.83202 46.2235 10.9657 40.9564 21.1962 37.3767C22.4378 36.9426 23.7372 36.5328 25.0856 36.1483C26.4997 40.7642 28.3544 45.5905 30.5926 50.4708C28.3252 55.4233 26.4441 60.3267 25.0163 64.9971C24.0798 64.7278 23.15 64.4355 22.2277 64.1204ZM27.691 26.7947C25.5676 15.9031 26.9777 7.68712 30.5268 5.62504C34.3067 3.42873 42.6653 6.56017 51.4755 14.4116C52.05 14.9247 52.6152 15.4483 53.1708 15.982C49.8879 19.5201 46.6443 23.5481 43.5454 27.9372C38.2313 28.4315 33.1446 29.2254 28.4678 30.289C28.1797 29.1311 27.9206 27.9661 27.691 26.7952V26.7947ZM76.4301 38.874C75.3255 36.9589 74.1799 35.068 72.9941 33.2025C76.5992 33.6601 80.0533 34.2674 83.297 35.0098C82.3233 38.1426 81.1095 41.4176 79.6808 44.7754C78.6365 42.7867 77.5527 40.8192 76.4301 38.874ZM56.5544 19.4443C58.7806 21.8652 61.0104 24.5679 63.2036 27.5004C58.7546 27.2895 54.2982 27.2886 49.8491 27.4977C52.0445 24.5922 54.2932 21.8931 56.5544 19.4443ZM36.5511 38.9072C35.4425 40.8368 34.3789 42.792 33.3613 44.7714C31.956 41.4255 30.7532 38.1355 29.7712 34.9584C32.9949 34.2346 36.4328 33.6428 40.0149 33.1936C38.8159 35.0705 37.661 36.9754 36.5511 38.9067V38.9072ZM40.1178 67.857C36.4169 67.4424 32.9274 66.8811 29.7045 66.1768C30.702 62.943 31.9312 59.583 33.367 56.1653C34.3887 58.1462 35.4567 60.1026 36.57 62.0331C37.7149 64.0177 38.9005 65.9615 40.1178 67.857ZM56.6877 81.6027C54.3996 79.1256 52.1177 76.3848 49.8892 73.4372C52.0528 73.5223 54.2584 73.5657 56.5001 73.5657C58.8031 73.5657 61.0797 73.5139 63.3206 73.4138C61.1203 76.4145 58.8989 79.1592 56.6877 81.6027ZM79.7263 55.9908C81.2366 59.4461 82.5096 62.7884 83.5203 65.9668C80.2444 66.7172 76.7073 67.3214 72.9804 67.7702C74.1746 65.87 75.3311 63.9462 76.4491 61.9999C77.5858 60.0215 78.6784 58.018 79.7263 55.9908ZM72.268 59.5794C70.5565 62.5635 68.7487 65.491 66.8475 68.3571C63.4038 68.6019 59.9525 68.7235 56.5001 68.7217C52.9837 68.7217 49.5635 68.6118 46.27 68.3974C44.3193 65.5379 42.477 62.6053 40.7472 59.606H40.7476C39.0259 56.6225 37.4177 53.5745 35.9265 50.4686C37.4139 47.3619 39.0172 44.3125 40.733 41.3268L40.7326 41.3272C42.4478 38.3407 44.2753 35.4207 46.2113 32.5734C49.5715 32.3183 53.0172 32.1854 56.4996 32.1854H56.5001C59.9984 32.1854 63.4486 32.3196 66.8078 32.5765C68.7243 35.4195 70.5402 38.3295 72.2521 41.3011C73.9736 44.2802 75.5982 47.3148 77.1231 50.3999C75.6138 53.5166 73.9944 56.5784 72.268 59.5794ZM82.2253 5.48062C86.0087 7.67073 87.4803 16.5025 85.103 28.0842C84.9512 28.8231 84.7808 29.5758 84.5955 30.339C79.9072 29.2528 74.8169 28.4453 69.4874 27.9434C66.3828 23.506 63.1656 19.4718 59.9361 15.9793C60.7825 15.1605 61.6491 14.3628 62.5349 13.5872C70.8768 6.30147 78.6732 3.42474 82.2253 5.48062ZM56.5001 40.2264C62.0724 40.2264 66.5898 44.7603 66.5898 50.353C66.5898 55.9456 62.0724 60.4796 56.5001 60.4796C50.9278 60.4796 46.4104 55.9456 46.4104 50.353C46.4104 44.7603 50.9278 40.2264 56.5001 40.2264Z"
                  fill="#00D8FF"/>
        </g>
        <defs>
            <clipPath id="clip0_2_5870">
                <rect width="113" height="101" fill="white"/>
            </clipPath>
        </defs>
    </g>
    <g id="redux">
        <path d="M72.6971 69.5627C76.5688 69.1619 79.5061 65.8242 79.3725 61.8184C79.2393 57.8131 75.9012 54.6086 71.8959 54.6086H71.6291C67.4897 54.7422 64.2856 58.2135 64.4193 62.3525C64.5529 64.3553 65.3537 66.091 66.5553 67.2926C62.016 76.2385 55.0734 82.7807 44.6594 88.2549C37.5832 91.9934 30.2402 93.3287 22.8971 92.3943C16.8889 91.593 12.216 88.923 9.27827 84.5164C5.00614 77.9742 4.60573 70.8975 8.21065 63.8213C10.7475 58.7475 14.7525 55.009 17.2893 53.1398C16.7553 51.4041 15.9541 48.4668 15.5537 46.3307C-3.80574 60.35 -1.80287 79.3094 4.07172 88.2549C8.47745 94.9311 17.4229 99.0701 27.3029 99.0701C29.9729 99.0701 32.643 98.8029 35.3135 98.1357C52.4033 94.7975 65.3541 84.65 72.6971 69.5627ZM96.1955 53.0066C86.0483 41.1234 71.0951 34.5811 54.0053 34.5811H51.8693C50.6676 32.1779 48.1307 30.5754 45.327 30.5754H45.0598C40.9213 30.709 37.7172 34.1803 37.8504 38.3197C37.984 42.325 41.3217 45.5295 45.327 45.5295H45.5938C48.5311 45.3959 51.068 43.5266 52.1361 40.9898H54.5393C64.6865 40.9898 74.2992 43.927 82.9779 49.6684C89.6533 54.0746 94.4598 59.816 97.1299 66.7586C99.3996 72.3664 99.266 77.8406 96.8627 82.5139C93.1246 89.5902 86.8496 93.4623 78.5717 93.4623C73.2311 93.4623 68.1578 91.8598 65.4873 90.6582C64.0188 91.9934 61.3484 94.1295 59.4791 95.4652C65.2205 98.1352 71.0951 99.6041 76.7025 99.6041C89.5197 99.6041 98.9992 92.5275 102.604 85.4512C106.476 77.707 106.209 64.3553 96.1955 53.0066ZM28.3709 71.832C28.5045 75.8377 31.8422 79.0418 35.8475 79.0418H36.1147C40.2537 78.9086 43.4578 75.4369 43.3242 71.2979C43.191 67.2922 39.8529 64.0881 35.8475 64.0881H35.5807C35.3135 64.0881 34.9127 64.0881 34.6463 64.2213C29.1721 55.1422 26.9025 45.2623 27.7037 34.5807C28.2373 26.5697 30.9078 19.6266 35.5807 13.8852C39.4525 8.94508 46.9291 6.5418 52.0029 6.40861C66.1549 6.14139 72.1627 23.7656 72.5635 30.8422C74.2992 31.2426 77.2365 32.1775 79.2393 32.8451C77.6369 11.2156 64.2856 0 51.4688 0C39.4524 0 28.3709 8.67869 23.9647 21.4963C17.8234 38.5865 21.8287 55.009 29.3053 67.9602C28.6381 68.8947 28.2373 70.3635 28.3709 71.8324V71.832Z"
              fill="#764ABC"/>
    </g>

    <g id="jest">
        <path d="M80.779 44.2421C80.779 39.6423 77.0499 35.9132 72.4502 35.9132C72.1541 35.9132 71.8624 35.9291 71.5745 35.9595L83.0142 2.21936H34.3994L45.8233 35.93C45.6547 35.9194 45.4859 35.9139 45.317 35.9135C40.7172 35.9135 36.9881 39.642 36.9881 44.2424C36.9881 47.9604 39.425 51.1083 42.7879 52.1793C41.0118 55.256 38.7766 58.0273 36.239 60.4216C32.7882 63.6767 28.8391 66.1453 24.5678 67.6661C19.4824 65.0537 17.0811 59.2438 19.2478 54.1498C19.4925 53.5743 19.7424 52.9913 19.9811 52.4108C23.6652 51.5509 26.4108 48.2483 26.4108 44.302C26.4108 39.7019 22.6817 35.9731 18.0817 35.9731C13.4816 35.9731 9.75284 39.7019 9.75284 44.302C9.75284 47.1227 11.1561 49.6144 13.3015 51.121C11.2401 55.8146 8.20977 60.7269 7.2656 66.4201C6.13406 73.243 7.2618 80.4856 13.163 84.5759C26.9064 94.1012 41.8247 78.6708 57.554 74.7918C63.2545 73.3863 69.5121 73.6127 74.5344 70.7041C78.306 68.5196 80.7926 64.8993 81.4981 60.835C82.1956 56.82 81.1791 52.8223 78.8419 49.5808C80.0958 48.0847 80.7817 46.1942 80.779 44.2421Z"
              fill="#99425B"/>
        <path d="M79.4945 60.487C78.8819 64.0158 76.7025 67.0978 73.5156 68.9439C70.5445 70.6646 66.9844 71.1782 63.2147 71.7216C61.1954 72.0126 59.1074 72.3142 57.0675 72.817C51.6739 74.147 46.4496 76.742 41.3977 79.2515C31.2871 84.2735 22.5556 88.6101 14.3226 82.9039C8.29168 78.7242 8.57005 70.9908 9.27263 66.7532C9.92384 62.8268 11.6844 59.2109 13.3866 55.7142C13.6766 55.1199 13.9643 54.5245 14.2496 53.928C15.1077 54.271 16.0081 54.4969 16.9265 54.5995C15.1935 60.3187 17.9188 66.5372 23.6387 69.4756L24.4218 69.878L25.2505 69.5828C29.7726 67.9722 33.9395 65.3883 37.6353 61.9011C40.0243 59.6472 42.0784 57.1536 43.7667 54.4891C44.28 54.5666 44.7983 54.6055 45.3174 54.6055C50.5674 54.6055 54.9147 50.6808 55.5875 45.6118C57.7365 45.5332 60.0189 45.5326 62.1802 45.6112C62.8523 50.6808 67.2003 54.6058 72.4503 54.6058C74.6455 54.6058 76.6816 53.9178 78.3591 52.7492C79.5236 55.1331 79.9583 57.8153 79.4945 60.487ZM18.0824 38.0074C21.5534 38.0074 24.3771 40.8314 24.3771 44.3024C24.3771 45.549 24.0112 46.7117 23.3831 47.6907C22.3369 49.3225 20.5582 50.4411 18.5149 50.5806C18.3719 50.5901 18.2276 50.5971 18.0824 50.5971C17.3088 50.5971 16.5679 50.456 15.8827 50.1998C14.5029 49.6809 13.3474 48.6968 12.6156 47.4171C12.0721 46.469 11.7866 45.3952 11.7874 44.3024C11.7874 40.8314 14.6114 38.0074 18.0824 38.0074ZM39.0231 44.2425C39.0231 41.0888 41.3543 38.4703 44.3834 38.0176C44.6884 37.9716 45.0004 37.9478 45.3177 37.9478C47.3357 37.9478 49.1324 38.9037 50.2846 40.385C50.5732 40.7543 50.8197 41.1547 51.0195 41.5787C51.4108 42.4122 51.6132 43.3217 51.6124 44.2425C51.6124 44.7456 51.5515 45.2348 51.4396 45.7041C50.8261 48.2722 48.6363 50.2353 45.9528 50.5054C45.7441 50.5264 45.5324 50.5371 45.3177 50.5371C44.1069 50.5381 42.9219 50.1878 41.9063 49.5286C40.1733 48.406 39.0231 46.4564 39.0231 44.2425ZM65.2952 36.757C63.9254 38.0645 62.9396 39.722 62.4446 41.5498C60.072 41.4623 57.697 41.4623 55.3244 41.5498C54.7917 39.574 53.6878 37.8308 52.2024 36.5069L58.7161 23.3361L65.2952 36.7573V36.757ZM37.2371 4.25429H80.1771L70.035 34.1661C69.5987 34.2706 69.1697 34.4035 68.7507 34.564L58.732 14.1262L48.6848 34.4419C48.2468 34.2916 47.7991 34.1709 47.3449 34.0808L37.2371 4.25429ZM78.745 44.2428C78.745 44.8737 78.6508 45.4831 78.4774 46.0585C78.0659 47.4133 77.2115 48.5906 76.051 49.4018C74.9963 50.142 73.7388 50.5386 72.4503 50.5375C69.5439 50.5375 67.0922 48.5569 66.3712 45.8746C66.2281 45.3425 66.1556 44.7939 66.1556 44.2428C66.1556 43.3823 66.3294 42.5618 66.6433 41.8142C66.8052 41.4317 67.0047 41.0662 67.2387 40.7229C68.3715 39.0508 70.283 37.9482 72.4503 37.9482C72.6491 37.9482 72.845 37.9583 73.0394 37.9767C76.2352 38.2744 78.7453 40.9702 78.7453 44.2428H78.745ZM82.8136 44.2428C82.8136 39.1834 79.1682 34.9619 74.3669 34.0602L85.8522 0.185303H31.5626L43.0657 34.1287C38.4311 35.16 34.9547 39.3016 34.9547 44.2425C34.9547 47.9526 36.9153 51.2112 39.8537 53.0424C38.4403 55.1483 36.7644 57.1298 34.8437 58.9421C31.7976 61.8155 28.4042 63.9948 24.7458 65.4288C21.0608 63.1141 19.5031 58.7487 21.1207 54.946L21.2475 54.648L21.4853 54.0887C25.5327 52.6769 28.4454 48.8248 28.4454 44.3024C28.4454 38.588 23.7966 33.9391 18.0824 33.9391C12.368 33.9391 7.71909 38.588 7.71909 44.3024C7.71909 47.1866 8.90485 49.7984 10.8128 51.6792C10.457 52.4331 10.0958 53.1845 9.72917 53.9334C7.98446 57.5163 6.00736 61.5774 5.25944 66.0874C3.77439 75.0439 6.17 82.2038 12.0053 86.2478C15.546 88.7017 19.142 89.6668 22.7604 89.6668C29.5738 89.6668 36.4664 86.2436 43.2078 82.895C48.0627 80.4838 53.0832 77.9903 58.0421 76.7671C59.8873 76.3121 61.7858 76.0382 63.7959 75.7484C67.7821 75.1733 71.9037 74.5788 75.5548 72.4644C79.7871 70.013 82.684 65.9009 83.5032 61.1833C84.2064 57.133 83.3602 53.0764 81.2962 49.6358C82.2908 48.0128 82.8161 46.146 82.8139 44.2425L82.8136 44.2428Z"
              fill="white"/>
    </g>

    <g id="styleComponent">
        <g clip-path="url(#clip0_1_3483)">
            <path d="M51.443 89.0363C51.5772 88.7327 51.9161 88.5217 52.1622 88.266C55.918 84.328 59.7058 80.4251 63.4105 76.4391C64.5698 75.3685 65.4656 74.0441 66.0279 72.5696C66.5902 71.0951 66.8037 69.5105 66.6517 67.9398C66.5354 67.2672 66.3828 66.6013 66.1946 65.9452C65.1845 66.9041 64.2448 67.7768 63.2986 68.6558C61.8283 70.0239 60.3643 71.3983 58.8811 72.7504C58.0066 73.6421 56.8821 74.2475 55.6562 74.4867C54.4303 74.7258 53.1607 74.5874 52.0152 74.0897C50.8555 73.6637 49.8465 72.9065 49.1135 71.912C48.3804 70.9176 47.9556 69.7297 47.8917 68.496C47.8574 68.3372 47.8114 68.1813 47.7543 68.0293C46.6259 68.9882 45.5455 69.8704 44.4747 70.7782L22.2179 89.6373C22.0644 89.7683 21.8982 89.9313 21.7544 90.0592H51.427L51.3823 90.0304C51.2224 89.9185 51.3055 89.3304 51.443 89.0363Z"
                  fill="#FFCEBF"/>
            <path d="M20.3952 89.0358C20.6591 88.6921 20.9777 88.3941 21.3381 88.1536L52.1391 62.0226C54.2402 60.239 56.3318 58.4458 58.4137 56.643C58.671 56.4636 58.8726 56.2155 58.9955 55.927C59.4935 53.7569 59.564 51.5106 59.2032 49.3136C58.8836 49.5373 58.711 49.6332 58.564 49.7898C56.042 52.0465 53.5327 54.3224 50.998 56.5663C50.1583 57.4114 49.0722 57.9685 47.896 58.1575C46.7197 58.3464 45.5138 58.1575 44.4516 57.6179C43.368 57.1064 42.4611 56.284 41.8464 55.2554C41.2316 54.2268 40.9368 53.0386 40.9995 51.842V50.8063C40.536 51.1451 40.1972 51.3721 39.8807 51.6278C27.5531 61.4984 15.2276 71.3616 2.90423 81.2173C2.34805 81.6616 1.68319 82.6525 0.954403 81.6904C0.225613 80.7282 1.33478 80.3319 1.89416 79.8844C15.0316 69.3425 28.1753 58.8102 41.3255 48.2875C43.4671 46.571 43.6078 45.8518 42.2141 43.1252L41.3831 43.9052C39.104 46.0244 36.7994 48.1149 34.5554 50.2693C33.635 51.1571 32.4822 51.7665 31.2302 52.0271C29.9781 52.2877 28.6779 52.1889 27.4797 51.742C26.2814 51.2951 25.234 50.5184 24.4584 49.5016C23.6827 48.4848 23.2105 47.2694 23.0962 45.9957C22.6711 46.3153 22.3035 46.5486 21.9551 46.8203L2.45673 61.9331C2.12044 62.263 1.73693 62.5409 1.3188 62.7578C1.00322 62.8532 0.664349 62.8363 0.359863 62.7099V90.0747H20.3568C20.2825 89.9103 20.2473 89.731 20.2539 89.5507C20.2606 89.3705 20.3089 89.1942 20.3952 89.0358Z"
                  fill="#FFCEBF"/>
            <path d="M74.4163 2.16717C73.8729 3.94759 73.3455 5.73121 72.8692 7.53081C72.4293 8.80254 72.4805 10.1928 73.0127 11.4287C73.5449 12.6647 74.5198 13.6571 75.746 14.2114C79.4968 16.1829 83.7233 17.0686 87.9501 16.7685V2.47083C87.9031 2.15736 87.9205 1.83761 88.0012 1.53108C88.0907 1.35769 88.2036 1.19743 88.3368 1.05481H74.4035C74.6177 1.30413 74.5442 1.74205 74.4163 2.16717Z"
                  fill="#FF6196"/>
            <path d="M46.4337 32.882C46.3674 34.4779 45.8091 36.0142 44.8354 37.2804C41.3545 41.7738 37.3571 45.842 32.9255 49.4013C32.2108 50.0628 31.305 50.481 30.338 50.5958C29.3709 50.7107 28.3924 50.5163 27.5427 50.0406C26.6969 49.6792 25.9838 49.0649 25.5013 48.2819C25.0188 47.4989 24.7906 46.5857 24.8481 45.6678C24.9504 44.5405 25.4185 43.4775 26.181 42.6408C31.1365 37.9155 36.5057 33.644 42.2239 29.8774C42.5984 29.5837 43.0558 29.4152 43.5313 29.3957C44.0069 29.3762 44.4765 29.5067 44.8738 29.7687C45.396 30.0929 45.8182 30.5555 46.0935 31.105C46.3688 31.6546 46.4866 32.2697 46.4337 32.882Z"
                  fill="#FF87AF"/>
            <path d="M42.6008 52.2556C42.5266 51.5491 42.6173 50.835 42.8658 50.1694C43.1143 49.5038 43.5137 48.905 44.0328 48.4199C48.885 43.9446 54.0908 39.8686 59.5995 36.2319C59.7657 36.1264 59.9192 36.0209 60.1014 35.9122C60.5825 35.5648 61.1656 35.3873 61.7587 35.4076C62.3518 35.4278 62.9213 35.6447 63.3777 36.0241C63.8193 36.3981 64.1317 36.9019 64.2706 37.4637C64.4094 38.0254 64.3677 38.6167 64.1512 39.1534C63.4543 41.4747 62.1681 43.5758 60.4178 45.2522C56.8631 48.7541 53.2398 52.1857 49.5499 55.5448C48.9942 56.1162 48.2642 56.4867 47.4749 56.5978C46.6856 56.7089 45.8818 56.5543 45.1899 56.1585C44.4629 55.7807 43.8439 55.2244 43.391 54.5417C42.9381 53.8589 42.6662 53.0723 42.6008 52.2556Z"
                  fill="#FF87AF"/>
            <path d="M65.6657 54.3676C64.7707 55.3265 63.8502 56.2407 62.9903 57.222C62.7318 57.6013 62.5173 58.0088 62.351 58.4367C62.8241 58.5773 63.3771 58.9481 63.7607 58.817C65.7137 58.1618 67.6188 57.3754 69.7636 56.5476C69.2969 57.6216 68.9453 58.6125 68.4499 59.5203C66.4088 62.9505 63.8527 66.0467 60.8711 68.7005C59.7374 69.7936 58.56 70.8389 57.339 71.8362C56.6924 72.3728 55.9148 72.728 55.0859 72.8655C54.2569 73.003 53.4063 72.9178 52.6211 72.6186C51.8358 72.3195 51.1442 71.8172 50.6168 71.163C50.0894 70.5088 49.7453 69.7263 49.6196 68.8954C49.5683 68.4335 49.6092 67.966 49.7398 67.5199C49.8703 67.0739 50.0881 66.6581 50.3803 66.2967C54.7301 61.5732 59.7013 57.4623 65.1575 54.0767C65.2239 54.051 65.2941 54.0369 65.3653 54.0352L65.6657 54.3676Z"
                  fill="#FF87AF"/>
            <path d="M73.0044 41.6361L78.4735 17.3431L82.3092 18.2413L80.3306 24.2539C78.4831 29.8476 76.6132 35.4414 74.8104 41.0416C74.4588 42.0772 73.9985 42.269 73.0044 41.6361Z"
                  fill="#FF6196"/>
            <path d="M66.8232 55.9244C67.4018 53.7156 67.9772 51.6731 68.463 49.6082C68.9365 47.6057 69.8372 45.7292 71.1033 44.1071C71.88 43.0874 72.7527 43.4934 73.6445 43.7139C74.4691 43.9153 74.6769 44.5195 74.7121 45.3122C74.8421 47.5043 74.1745 49.6695 72.8326 51.4078C71.235 53.3883 69.1699 54.9405 66.8232 55.9244Z"
                  fill="#FF6196"/>
            <path d="M89.6172 3.67262C89.6649 2.96072 89.6467 2.24594 89.5628 1.53739C89.4969 1.33948 89.3663 1.16948 89.192 1.05473C89.0501 0.93935 88.8841 0.857411 88.7062 0.814995C88.6039 0.795816 88.4601 0.901299 88.3226 1.05153C88.1894 1.19416 88.0765 1.35441 87.987 1.5278C87.9063 1.83433 87.8889 2.15408 87.9358 2.46756V16.7621C83.7091 17.0621 79.4826 16.1765 75.7318 14.2049C74.5056 13.6507 73.5307 12.6582 72.9985 11.4222C72.4663 10.1863 72.4151 8.79607 72.855 7.52434C73.3313 5.72474 73.8587 3.94112 74.4021 2.1607C74.5299 1.73557 74.6035 1.29766 74.4021 1.04834C74.2901 0.926963 74.1354 0.853652 73.9706 0.843763C73.7594 0.846041 73.5549 0.917951 73.3888 1.04834C73.1498 1.19131 72.9593 1.40294 72.8422 1.65566C72.2029 3.57353 71.6404 5.51057 71.1513 7.4668C70.9667 8.23769 70.9169 9.03472 71.0043 9.82258C71.1279 11.2481 71.6581 12.6082 72.5318 13.7414C73.4055 14.8746 74.586 15.7333 75.9332 16.2155C76.5373 16.468 76.8921 16.7173 76.7227 17.5132C76.4894 18.5233 76.2624 19.5334 76.0323 20.5467C74.466 27.4126 72.9083 34.2818 71.3591 41.1542C71.3154 41.4606 71.1806 41.7468 70.9723 41.9756C69.9512 42.7873 69.0932 43.7851 68.4439 44.9164C67.6164 46.4092 67.0439 48.0297 66.7498 49.711C66.6934 50.2474 66.4995 50.7601 66.1871 51.1996C65.8747 51.6391 65.4541 51.9907 64.9662 52.2203C63.6333 52.8947 62.409 53.7673 60.9291 54.6751C61.0277 52.8954 61.0085 51.1111 60.8715 49.3339C60.7589 48.7872 60.7828 48.2211 60.9411 47.6859C61.0995 47.1506 61.3874 46.6627 61.7793 46.2653C63.7288 44.3339 65.1185 41.9104 65.8004 39.2523C66.0041 38.6361 66.06 37.9807 65.9635 37.3389C65.867 36.6972 65.6208 36.0871 65.2449 35.5581C64.869 35.0291 64.3739 34.596 63.7996 34.2938C63.2254 33.9915 62.588 33.8286 61.9391 33.8183C60.8885 33.8066 59.8571 34.0997 58.9696 34.6622C55.9196 36.745 52.9225 38.9043 49.9812 41.1382C48.2328 42.4551 46.5866 43.9127 44.8925 45.2936C44.8195 45.2151 44.7562 45.1282 44.7039 45.0346C44.6715 44.7993 44.6081 44.5693 44.5153 44.3506C43.0993 42.1642 44.0806 40.5756 45.6181 38.9422C47.2199 37.2632 48.1049 35.0264 48.0857 32.7059C48.1354 31.5236 47.7651 30.3619 47.0405 29.4264C46.6545 28.9515 46.1788 28.5572 45.6405 28.2661C44.8758 27.8476 44.0016 27.6729 43.1348 27.7655C42.2681 27.858 41.4504 28.2134 40.7915 28.7839L39.8996 29.4232C37.8635 30.8808 35.8018 32.3 33.8424 33.8599C30.9819 36.1437 28.1829 38.5035 25.4485 40.9368C24.1699 42.0651 23.2366 43.6058 21.91 44.6543C14.9929 50.117 8.0023 55.4806 1.03724 60.8794C0.797749 61.0223 0.577535 61.1952 0.381972 61.3941C0.36184 61.4231 0.344705 61.4542 0.330829 61.4868C0.183792 61.8288 0.0591314 62.3945 0.23174 62.6023C0.274051 62.6474 0.325189 62.6833 0.381972 62.7078C0.686458 62.8342 1.02533 62.8511 1.34091 62.7557C1.75904 62.5388 2.14255 62.2609 2.47884 61.9311L21.9772 46.8183C22.3256 46.5466 22.6932 46.3004 23.1183 45.9936C23.2326 47.2673 23.7048 48.4828 24.4805 49.4996C25.2561 50.5163 26.3035 51.293 27.5018 51.7399C28.7 52.1868 30.0002 52.2856 31.2523 52.0251C32.5043 51.7645 33.6571 51.1551 34.5776 50.2672C36.8151 48.1128 39.1261 46.0223 41.4052 43.9031L42.2362 43.1232C43.6299 45.8497 43.4893 46.5689 41.3476 48.2854C28.1868 58.8167 15.0355 69.35 1.89389 79.8855C1.33451 80.333 0.228543 80.739 0.954137 81.6915C1.67973 82.644 2.34779 81.6627 2.90397 81.2184C15.2337 71.3712 27.555 61.5113 39.8677 51.6385C40.1873 51.3828 40.5229 51.1558 40.9864 50.817V51.8527C40.9238 53.0493 41.2186 54.2375 41.8333 55.2661C42.4481 56.2947 43.355 57.1171 44.4386 57.6286C45.5007 58.1682 46.7066 58.3571 47.8829 58.1682C49.0592 57.9792 50.1452 57.4221 50.9849 56.577C53.5197 54.3395 56.0289 52.0572 58.5509 49.8005C58.7107 49.6567 58.8961 49.548 59.1902 49.3243C59.551 51.5213 59.4804 53.7676 58.9824 55.9377C58.8595 56.2262 58.6579 56.4743 58.4007 56.6537C56.3166 58.4544 54.225 60.2476 52.126 62.0333L21.3379 88.1675C20.9774 88.408 20.6589 88.706 20.3949 89.0497C20.3107 89.2065 20.2634 89.3805 20.2568 89.5583C20.2502 89.7361 20.2843 89.9131 20.3566 90.0758C20.501 90.184 20.668 90.2583 20.845 90.2931C21.0221 90.328 21.2048 90.3225 21.3794 90.2772C21.5173 90.2371 21.6441 90.166 21.7502 90.0694C21.91 89.9415 22.0699 89.7785 22.2137 89.6475L44.4706 70.7884C45.5414 69.8806 46.6218 68.9856 47.7501 68.0395C47.8073 68.1915 47.8532 68.3474 47.8876 68.5061C47.9514 69.7399 48.3762 70.9278 49.1093 71.9222C49.8423 72.9167 50.8513 73.6739 52.011 74.0999C53.1565 74.5976 54.4261 74.736 55.652 74.4969C56.8779 74.2577 58.0024 73.6523 58.8769 72.7606C60.3601 71.4085 61.8241 70.034 63.2944 68.666C64.2534 67.7869 65.1803 66.9047 66.1904 65.9554C66.3786 66.6115 66.5312 67.2774 66.6475 67.95C66.7944 69.5155 66.5784 71.0939 66.0163 72.5624C65.4542 74.0309 64.5611 75.3501 63.4063 76.4174C59.7016 80.4065 55.9138 84.3094 52.158 88.2442C51.9119 88.4999 51.5731 88.7109 51.4388 89.0146C51.3046 89.3182 51.2183 89.9128 51.3781 90.0406L51.4228 90.0694C51.758 90.2324 52.1349 90.2893 52.5032 90.2324C52.6064 90.2112 52.6984 90.1533 52.7621 90.0694C52.8516 89.9767 52.9379 89.8616 53.0243 89.7753C56.0673 86.63 59.1263 83.5007 62.1469 80.333C63.3662 79.0977 64.5124 77.7924 65.5799 76.4237C66.9718 74.8828 67.8948 72.9765 68.2402 70.9289C68.5856 68.8813 68.3391 66.7777 67.5297 64.8654C67.4427 64.439 67.5277 63.9955 67.7663 63.6316C67.974 63.2736 68.2042 62.9252 68.4407 62.5799C69.1976 61.5973 69.8279 60.5234 70.317 59.3835C71.2622 56.5859 72.7129 53.9857 74.5971 51.712C75.4633 50.6138 76.0592 49.3274 76.3368 47.9565C76.6145 46.5856 76.566 45.1687 76.1953 43.82C76.0643 43.3072 76.0643 42.7697 76.1953 42.2569C77.8127 37.2481 79.478 32.2552 81.1274 27.2592L83.333 20.5658L84.0138 18.4977C85.465 18.4977 86.8331 18.469 88.1947 18.4977C89.3263 18.5297 89.6715 17.9991 89.6587 16.8995C89.5916 12.4884 89.6172 8.08052 89.6172 3.67262ZM32.9218 49.401C32.2071 50.0625 31.3013 50.4807 30.3343 50.5955C29.3673 50.7104 28.3887 50.516 27.539 50.0403C26.6932 49.6789 25.9801 49.0646 25.4976 48.2816C25.0151 47.4986 24.7869 46.5854 24.8444 45.6675C24.9467 44.5402 25.4148 43.4772 26.1773 42.6405C31.1329 37.9152 36.502 33.6437 42.2203 29.8771C42.5324 29.6565 42.8874 29.504 43.2623 29.4296C43.5138 29.3832 43.7716 29.3832 44.0231 29.4296C44.3242 29.4882 44.6116 29.6032 44.8701 29.7684C45.3928 30.0929 45.8153 30.556 46.0907 31.1061C46.3661 31.6563 46.4835 32.272 46.43 32.8849C46.3637 34.4808 45.8055 36.0171 44.8318 37.2833C41.3507 41.7755 37.3532 45.8427 32.9218 49.401ZM49.5433 55.5669C48.9876 56.1384 48.2577 56.5088 47.4684 56.6199C46.6791 56.731 45.8752 56.5765 45.1834 56.1806C44.4551 55.802 43.8352 55.2442 43.3822 54.5597C42.9292 53.8751 42.6581 53.0865 42.5942 52.2682C42.52 51.5616 42.6107 50.8475 42.8592 50.1819C43.1077 49.5164 43.5072 48.9175 44.0262 48.4325C48.8784 43.9571 54.0842 39.8812 59.5929 36.2444C59.7592 36.1389 59.9126 36.0334 60.0948 35.9248C60.576 35.5774 61.159 35.3999 61.7521 35.4201C62.3452 35.4404 62.9148 35.6573 63.3711 36.0366C63.8127 36.4107 64.1251 36.9144 64.264 37.4762C64.4029 38.038 64.3611 38.6293 64.1447 39.166C63.4478 41.4872 62.1615 43.5884 60.4112 45.2648C56.8856 48.7873 53.2192 52.1787 49.5497 55.5541L49.5433 55.5669ZM68.4375 59.5337C66.3992 62.9585 63.8476 66.0503 60.8715 68.7011C59.7379 69.7943 58.5605 70.8396 57.3395 71.8368C56.6928 72.3735 55.9153 72.7287 55.0863 72.8662C54.2574 73.0036 53.4067 72.9185 52.6215 72.6193C51.8363 72.3202 51.1446 71.8178 50.6172 71.1637C50.0899 70.5095 49.7457 69.7269 49.62 68.8961C49.5688 68.4342 49.6096 67.9667 49.7402 67.5206C49.8708 67.0745 50.0885 66.6588 50.3808 66.2974C54.7306 61.5739 59.7017 57.463 65.158 54.0774C65.2243 54.0517 65.2946 54.0376 65.3657 54.0358L65.6854 54.3555C64.7904 55.3144 63.8698 56.2286 63.0099 57.2099C62.7514 57.5892 62.5369 57.9967 62.3707 58.4246C62.8437 58.5652 63.3967 58.936 63.7803 58.8049C65.3242 58.2871 66.8425 57.6862 68.4695 57.0469L69.7832 56.5355C69.291 57.6222 68.9394 58.6131 68.4439 59.5209L68.4375 59.5337ZM72.8262 51.4307C71.6339 52.9486 70.1395 54.2025 68.4375 55.113C67.9112 55.4071 67.371 55.682 66.8169 55.9377C67.3859 53.7609 67.9548 51.744 68.4375 49.7047L68.4567 49.6215C68.9302 47.619 69.8308 45.7425 71.097 44.1205C71.8737 43.1008 72.7463 43.5067 73.6381 43.7273C74.4628 43.9287 74.6706 44.5328 74.7057 45.3255C74.8368 47.5158 74.1716 49.6796 72.8326 51.4179L72.8262 51.4307ZM80.3059 24.2609C78.4584 29.8547 76.5885 35.4485 74.7857 41.0487C74.4468 42.1003 73.9865 42.2921 72.9924 41.6592L77.7328 20.585L78.4616 17.3502L82.2973 18.2484L81.527 20.585L80.3059 24.2609Z"
                  fill="#1F2626"/>
        </g>
        <defs>
            <clipPath id="clip0_1_3483">
                <rect width="89.5111" height="89.5111" fill="white" transform="translate(0.147949 0.808594)"/>
            </clipPath>
        </defs>
    </g>

    <g id="figma">
        <g clip-path="url(#clip0_6_7784)">
            <path d="M15.0513 89.6605C23.0898 89.6605 29.6099 83.0208 29.6099 74.8348V60.0091H15.0513C7.01274 60.0091 0.492615 66.6488 0.492615 74.8348C0.492615 83.0208 7.01274 89.6605 15.0513 89.6605Z"
                  fill="#0ACF83"/>
            <path d="M0.492615 45.1652C0.492615 36.9793 7.01274 30.3395 15.0513 30.3395H29.6099V60.0091H15.0513C7.01274 59.9909 0.492615 53.3512 0.492615 45.1652Z"
                  fill="#A259FF"/>
            <path d="M0.492615 15.4956C0.492615 7.30965 7.01274 0.669922 15.0513 0.669922H29.6099V30.3395H15.0513C7.01274 30.3395 0.492615 23.6816 0.492615 15.4956Z"
                  fill="#F24E1E"/>
            <path d="M29.6277 0.669922H44.1864C52.2249 0.669922 58.745 7.30965 58.745 15.4956C58.745 23.6816 52.2249 30.3213 44.1864 30.3213H29.6277V0.669922Z"
                  fill="#FF7262"/>
            <path d="M58.7451 45.1652C58.7451 53.3512 52.225 59.9909 44.1865 59.9909C36.1479 59.9909 29.6278 53.3512 29.6278 45.1652C29.6278 36.9793 36.1479 30.3395 44.1865 30.3395C52.225 30.3395 58.7451 36.9793 58.7451 45.1652Z"
                  fill="#1ABCFE"/>
        </g>
        <defs>
            <clipPath id="clip0_6_7784">
                <rect width="58.2524" height="88.9906" fill="white" transform="translate(0.492615 0.669922)"/>
            </clipPath>
        </defs>

    </g>
    <g id="storybook">
        <defs xmlns="http://www.w3.org/2000/svg">
            <path id="a"
                  d="M6.43 15.66L6 4.1a.7.7 0 0 1 .66-.73l9.83-.61a.7.7 0 0 1 .75.7v12.6a.7.7 0 0 1-.74.7l-9.4-.43a.7.7 0 0 1-.67-.67z"/>
        </defs>
        <path xmlns="http://www.w3.org/2000/svg" id="a"
              d="M6.43 15.66L6 4.1a.7.7 0 0 1 .66-.73l9.83-.61a.7.7 0 0 1 .75.7v12.6a.7.7 0 0 1-.74.7l-9.4-.43a.7.7 0 0 1-.67-.67z"/>
        <g xmlns="http://www.w3.org/2000/svg" fill="none" fill-rule="evenodd">
            <rect width="82" height="20" fill="#2A0481" rx="3"/>
            <path fill="#FFF" fill-rule="nonzero"
                  d="M24.91 13.84c-.6 0-1.18-.08-1.75-.24a4.17 4.17 0 0 1-1.4-.67l.58-1.24c.77.53 1.64.8 2.6.8.5 0 .88-.09 1.15-.25.27-.16.4-.38.4-.66 0-.26-.12-.46-.37-.6a4.98 4.98 0 0 0-1.3-.41 7.34 7.34 0 0 1-1.7-.52 2.2 2.2 0 0 1-.91-.74c-.2-.3-.3-.66-.3-1.1 0-.47.14-.9.4-1.27.28-.37.65-.67 1.14-.88a4.15 4.15 0 0 1 1.68-.32c.57 0 1.12.08 1.64.25.53.16.95.38 1.26.66l-.57 1.24a3.9 3.9 0 0 0-2.32-.8c-.46 0-.82.1-1.09.27a.82.82 0 0 0-.4.72c0 .18.05.33.16.44.1.12.27.22.5.31.25.1.59.18 1.02.28a5.7 5.7 0 0 1 2.23.86c.45.36.67.84.67 1.46 0 .75-.29 1.33-.87 1.76-.59.43-1.4.65-2.45.65zM32.34 12.58c.18 0 .36 0 .55-.03l-.1 1.23c-.21.03-.43.05-.65.05-.85 0-1.47-.19-1.86-.55-.39-.37-.58-.92-.58-1.67V9.5h-1.06V8.23h1.06V6.63h1.71v1.6h1.4V9.5h-1.4v2.1c0 .66.31.98.93.98zM36.33 13.83c-.59 0-1.1-.12-1.56-.36a2.5 2.5 0 0 1-1.03-1 3.04 3.04 0 0 1-.36-1.51c0-.58.12-1.09.36-1.52.24-.43.59-.76 1.03-.99.45-.23.97-.35 1.56-.35.6 0 1.11.12 1.56.35.44.23.79.56 1.03 1 .24.42.36.93.36 1.51s-.12 1.09-.36 1.52a2.5 2.5 0 0 1-1.03 1 3.3 3.3 0 0 1-1.56.35zm0-1.3c.83 0 1.25-.52 1.25-1.57 0-.53-.1-.93-.32-1.19-.22-.26-.53-.39-.93-.39-.83 0-1.25.53-1.25 1.58s.42 1.58 1.25 1.58zM44.03 9.5l-.96.1c-.48.04-.82.17-1.01.4-.2.21-.3.5-.3.87v2.87h-1.71v-5.5h1.64v.93c.28-.64.86-.98 1.74-1.04l.5-.04.1 1.4zM49.02 8.25h1.68l-3.36 7.5H45.6l1.07-2.31-2.3-5.19h1.78l1.41 3.49 1.46-3.49zM54.67 8.1c.49 0 .92.12 1.29.35.37.23.66.56.87 1 .2.42.31.92.31 1.49 0 .56-.1 1.07-.31 1.5a2.3 2.3 0 0 1-2.15 1.38c-.4 0-.74-.07-1.05-.23a1.73 1.73 0 0 1-.72-.67v.82h-1.69v-7.9h1.72v3.14c.16-.28.4-.5.7-.65.31-.15.66-.23 1.03-.23zm-.5 4.44c.4 0 .72-.14.94-.42.22-.28.33-.67.33-1.18 0-.5-.11-.89-.33-1.15-.22-.27-.53-.4-.94-.4-.4 0-.7.14-.93.41a1.8 1.8 0 0 0-.33 1.16c0 .5.11.9.33 1.17.22.27.53.4.93.4zM60.87 13.83c-.6 0-1.11-.12-1.56-.36a2.5 2.5 0 0 1-1.03-1 3.04 3.04 0 0 1-.37-1.51c0-.58.12-1.09.37-1.52.24-.43.58-.76 1.03-.99.45-.23.97-.35 1.56-.35.59 0 1.1.12 1.55.35.45.23.8.56 1.04 1 .24.42.36.93.36 1.51s-.12 1.09-.36 1.52a2.5 2.5 0 0 1-1.04 1 3.3 3.3 0 0 1-1.55.35zm0-1.3c.83 0 1.25-.52 1.25-1.57 0-.53-.11-.93-.33-1.19-.21-.26-.52-.39-.92-.39-.84 0-1.25.53-1.25 1.58s.41 1.58 1.25 1.58zM67.26 13.83c-.59 0-1.1-.12-1.55-.36a2.5 2.5 0 0 1-1.04-1 3.04 3.04 0 0 1-.36-1.51c0-.58.12-1.09.36-1.52.24-.43.59-.76 1.04-.99.44-.23.96-.35 1.55-.35.6 0 1.11.12 1.56.35.44.23.79.56 1.03 1 .24.42.37.93.37 1.51s-.13 1.09-.37 1.52a2.5 2.5 0 0 1-1.03 1 3.3 3.3 0 0 1-1.56.35zm0-1.3c.83 0 1.25-.52 1.25-1.57 0-.53-.1-.93-.32-1.19-.22-.26-.53-.39-.93-.39-.83 0-1.25.53-1.25 1.58s.42 1.58 1.25 1.58zM77 13.74h-2.1l-2.14-2.46v2.46h-1.71v-7.9h1.71v4.75l2.06-2.34h2.04l-2.34 2.62z"/>
            <mask id="b" fill="#fff">
                <use xmlns:xlink="http://www.w3.org/1999/xlink" xlink:href="#a"/>
            </mask>
            <use fill="#FF4785" xmlns:xlink="http://www.w3.org/1999/xlink" xlink:href="#a"/>
            <path fill="#FFF" fill-rule="nonzero"
                  d="M14.3 4.48l.06-1.62 1.35-.1.06 1.66a.1.1 0 0 1-.17.09l-.52-.41-.61.47a.1.1 0 0 1-.17-.1zm-1.73 3.55c0 .28 1.85.15 2.1-.05 0-1.86-1-2.84-2.84-2.84-1.83 0-2.86 1-2.86 2.49 0 2.6 3.51 2.65 3.51 4.06 0 .4-.2.64-.62.64-.56 0-.78-.29-.76-1.26 0-.2-2.13-.27-2.2 0-.16 2.35 1.3 3.03 2.98 3.03 1.63 0 2.9-.86 2.9-2.43 0-2.79-3.56-2.71-3.56-4.1 0-.55.42-.63.66-.63.26 0 .73.05.7 1.1z"
                  mask="url(#b)"/>
        </g>
        <rect xmlns="http://www.w3.org/2000/svg" width="82" height="20" fill="#2A0481" rx="3"/>
        <path xmlns="http://www.w3.org/2000/svg" fill="#FFF" fill-rule="nonzero"
              d="M24.91 13.84c-.6 0-1.18-.08-1.75-.24a4.17 4.17 0 0 1-1.4-.67l.58-1.24c.77.53 1.64.8 2.6.8.5 0 .88-.09 1.15-.25.27-.16.4-.38.4-.66 0-.26-.12-.46-.37-.6a4.98 4.98 0 0 0-1.3-.41 7.34 7.34 0 0 1-1.7-.52 2.2 2.2 0 0 1-.91-.74c-.2-.3-.3-.66-.3-1.1 0-.47.14-.9.4-1.27.28-.37.65-.67 1.14-.88a4.15 4.15 0 0 1 1.68-.32c.57 0 1.12.08 1.64.25.53.16.95.38 1.26.66l-.57 1.24a3.9 3.9 0 0 0-2.32-.8c-.46 0-.82.1-1.09.27a.82.82 0 0 0-.4.72c0 .18.05.33.16.44.1.12.27.22.5.31.25.1.59.18 1.02.28a5.7 5.7 0 0 1 2.23.86c.45.36.67.84.67 1.46 0 .75-.29 1.33-.87 1.76-.59.43-1.4.65-2.45.65zM32.34 12.58c.18 0 .36 0 .55-.03l-.1 1.23c-.21.03-.43.05-.65.05-.85 0-1.47-.19-1.86-.55-.39-.37-.58-.92-.58-1.67V9.5h-1.06V8.23h1.06V6.63h1.71v1.6h1.4V9.5h-1.4v2.1c0 .66.31.98.93.98zM36.33 13.83c-.59 0-1.1-.12-1.56-.36a2.5 2.5 0 0 1-1.03-1 3.04 3.04 0 0 1-.36-1.51c0-.58.12-1.09.36-1.52.24-.43.59-.76 1.03-.99.45-.23.97-.35 1.56-.35.6 0 1.11.12 1.56.35.44.23.79.56 1.03 1 .24.42.36.93.36 1.51s-.12 1.09-.36 1.52a2.5 2.5 0 0 1-1.03 1 3.3 3.3 0 0 1-1.56.35zm0-1.3c.83 0 1.25-.52 1.25-1.57 0-.53-.1-.93-.32-1.19-.22-.26-.53-.39-.93-.39-.83 0-1.25.53-1.25 1.58s.42 1.58 1.25 1.58zM44.03 9.5l-.96.1c-.48.04-.82.17-1.01.4-.2.21-.3.5-.3.87v2.87h-1.71v-5.5h1.64v.93c.28-.64.86-.98 1.74-1.04l.5-.04.1 1.4zM49.02 8.25h1.68l-3.36 7.5H45.6l1.07-2.31-2.3-5.19h1.78l1.41 3.49 1.46-3.49zM54.67 8.1c.49 0 .92.12 1.29.35.37.23.66.56.87 1 .2.42.31.92.31 1.49 0 .56-.1 1.07-.31 1.5a2.3 2.3 0 0 1-2.15 1.38c-.4 0-.74-.07-1.05-.23a1.73 1.73 0 0 1-.72-.67v.82h-1.69v-7.9h1.72v3.14c.16-.28.4-.5.7-.65.31-.15.66-.23 1.03-.23zm-.5 4.44c.4 0 .72-.14.94-.42.22-.28.33-.67.33-1.18 0-.5-.11-.89-.33-1.15-.22-.27-.53-.4-.94-.4-.4 0-.7.14-.93.41a1.8 1.8 0 0 0-.33 1.16c0 .5.11.9.33 1.17.22.27.53.4.93.4zM60.87 13.83c-.6 0-1.11-.12-1.56-.36a2.5 2.5 0 0 1-1.03-1 3.04 3.04 0 0 1-.37-1.51c0-.58.12-1.09.37-1.52.24-.43.58-.76 1.03-.99.45-.23.97-.35 1.56-.35.59 0 1.1.12 1.55.35.45.23.8.56 1.04 1 .24.42.36.93.36 1.51s-.12 1.09-.36 1.52a2.5 2.5 0 0 1-1.04 1 3.3 3.3 0 0 1-1.55.35zm0-1.3c.83 0 1.25-.52 1.25-1.57 0-.53-.11-.93-.33-1.19-.21-.26-.52-.39-.92-.39-.84 0-1.25.53-1.25 1.58s.41 1.58 1.25 1.58zM67.26 13.83c-.59 0-1.1-.12-1.55-.36a2.5 2.5 0 0 1-1.04-1 3.04 3.04 0 0 1-.36-1.51c0-.58.12-1.09.36-1.52.24-.43.59-.76 1.04-.99.44-.23.96-.35 1.55-.35.6 0 1.11.12 1.56.35.44.23.79.56 1.03 1 .24.42.37.93.37 1.51s-.13 1.09-.37 1.52a2.5 2.5 0 0 1-1.03 1 3.3 3.3 0 0 1-1.56.35zm0-1.3c.83 0 1.25-.52 1.25-1.57 0-.53-.1-.93-.32-1.19-.22-.26-.53-.39-.93-.39-.83 0-1.25.53-1.25 1.58s.42 1.58 1.25 1.58zM77 13.74h-2.1l-2.14-2.46v2.46h-1.71v-7.9h1.71v4.75l2.06-2.34h2.04l-2.34 2.62z"/>
        <mask xmlns="http://www.w3.org/2000/svg" id="b" fill="#fff">
            <use xmlns:xlink="http://www.w3.org/1999/xlink" xlink:href="#a"/>
        </mask>
        <use xmlns="http://www.w3.org/2000/svg" fill="#FF4785" xmlns:xlink="http://www.w3.org/1999/xlink"
             xlink:href="#a"/>
        <path xmlns="http://www.w3.org/2000/svg" fill="#FFF" fill-rule="nonzero"
              d="M14.3 4.48l.06-1.62 1.35-.1.06 1.66a.1.1 0 0 1-.17.09l-.52-.41-.61.47a.1.1 0 0 1-.17-.1zm-1.73 3.55c0 .28 1.85.15 2.1-.05 0-1.86-1-2.84-2.84-2.84-1.83 0-2.86 1-2.86 2.49 0 2.6 3.51 2.65 3.51 4.06 0 .4-.2.64-.62.64-.56 0-.78-.29-.76-1.26 0-.2-2.13-.27-2.2 0-.16 2.35 1.3 3.03 2.98 3.03 1.63 0 2.9-.86 2.9-2.43 0-2.79-3.56-2.71-3.56-4.1 0-.55.42-.63.66-.63.26 0 .73.05.7 1.1z"
              mask="url(#b)"/>
        <g xmlns="http://www.w3.org/2000/svg" fill="none" fill-rule="evenodd">
            <rect width="82" height="20" fill="#2A0481" rx="3"/>
            <path fill="#FFF" fill-rule="nonzero"
                  d="M24.91 13.84c-.6 0-1.18-.08-1.75-.24a4.17 4.17 0 0 1-1.4-.67l.58-1.24c.77.53 1.64.8 2.6.8.5 0 .88-.09 1.15-.25.27-.16.4-.38.4-.66 0-.26-.12-.46-.37-.6a4.98 4.98 0 0 0-1.3-.41 7.34 7.34 0 0 1-1.7-.52 2.2 2.2 0 0 1-.91-.74c-.2-.3-.3-.66-.3-1.1 0-.47.14-.9.4-1.27.28-.37.65-.67 1.14-.88a4.15 4.15 0 0 1 1.68-.32c.57 0 1.12.08 1.64.25.53.16.95.38 1.26.66l-.57 1.24a3.9 3.9 0 0 0-2.32-.8c-.46 0-.82.1-1.09.27a.82.82 0 0 0-.4.72c0 .18.05.33.16.44.1.12.27.22.5.31.25.1.59.18 1.02.28a5.7 5.7 0 0 1 2.23.86c.45.36.67.84.67 1.46 0 .75-.29 1.33-.87 1.76-.59.43-1.4.65-2.45.65zM32.34 12.58c.18 0 .36 0 .55-.03l-.1 1.23c-.21.03-.43.05-.65.05-.85 0-1.47-.19-1.86-.55-.39-.37-.58-.92-.58-1.67V9.5h-1.06V8.23h1.06V6.63h1.71v1.6h1.4V9.5h-1.4v2.1c0 .66.31.98.93.98zM36.33 13.83c-.59 0-1.1-.12-1.56-.36a2.5 2.5 0 0 1-1.03-1 3.04 3.04 0 0 1-.36-1.51c0-.58.12-1.09.36-1.52.24-.43.59-.76 1.03-.99.45-.23.97-.35 1.56-.35.6 0 1.11.12 1.56.35.44.23.79.56 1.03 1 .24.42.36.93.36 1.51s-.12 1.09-.36 1.52a2.5 2.5 0 0 1-1.03 1 3.3 3.3 0 0 1-1.56.35zm0-1.3c.83 0 1.25-.52 1.25-1.57 0-.53-.1-.93-.32-1.19-.22-.26-.53-.39-.93-.39-.83 0-1.25.53-1.25 1.58s.42 1.58 1.25 1.58zM44.03 9.5l-.96.1c-.48.04-.82.17-1.01.4-.2.21-.3.5-.3.87v2.87h-1.71v-5.5h1.64v.93c.28-.64.86-.98 1.74-1.04l.5-.04.1 1.4zM49.02 8.25h1.68l-3.36 7.5H45.6l1.07-2.31-2.3-5.19h1.78l1.41 3.49 1.46-3.49zM54.67 8.1c.49 0 .92.12 1.29.35.37.23.66.56.87 1 .2.42.31.92.31 1.49 0 .56-.1 1.07-.31 1.5a2.3 2.3 0 0 1-2.15 1.38c-.4 0-.74-.07-1.05-.23a1.73 1.73 0 0 1-.72-.67v.82h-1.69v-7.9h1.72v3.14c.16-.28.4-.5.7-.65.31-.15.66-.23 1.03-.23zm-.5 4.44c.4 0 .72-.14.94-.42.22-.28.33-.67.33-1.18 0-.5-.11-.89-.33-1.15-.22-.27-.53-.4-.94-.4-.4 0-.7.14-.93.41a1.8 1.8 0 0 0-.33 1.16c0 .5.11.9.33 1.17.22.27.53.4.93.4zM60.87 13.83c-.6 0-1.11-.12-1.56-.36a2.5 2.5 0 0 1-1.03-1 3.04 3.04 0 0 1-.37-1.51c0-.58.12-1.09.37-1.52.24-.43.58-.76 1.03-.99.45-.23.97-.35 1.56-.35.59 0 1.1.12 1.55.35.45.23.8.56 1.04 1 .24.42.36.93.36 1.51s-.12 1.09-.36 1.52a2.5 2.5 0 0 1-1.04 1 3.3 3.3 0 0 1-1.55.35zm0-1.3c.83 0 1.25-.52 1.25-1.57 0-.53-.11-.93-.33-1.19-.21-.26-.52-.39-.92-.39-.84 0-1.25.53-1.25 1.58s.41 1.58 1.25 1.58zM67.26 13.83c-.59 0-1.1-.12-1.55-.36a2.5 2.5 0 0 1-1.04-1 3.04 3.04 0 0 1-.36-1.51c0-.58.12-1.09.36-1.52.24-.43.59-.76 1.04-.99.44-.23.96-.35 1.55-.35.6 0 1.11.12 1.56.35.44.23.79.56 1.03 1 .24.42.37.93.37 1.51s-.13 1.09-.37 1.52a2.5 2.5 0 0 1-1.03 1 3.3 3.3 0 0 1-1.56.35zm0-1.3c.83 0 1.25-.52 1.25-1.57 0-.53-.1-.93-.32-1.19-.22-.26-.53-.39-.93-.39-.83 0-1.25.53-1.25 1.58s.42 1.58 1.25 1.58zM77 13.74h-2.1l-2.14-2.46v2.46h-1.71v-7.9h1.71v4.75l2.06-2.34h2.04l-2.34 2.62z"/>
            <mask id="b" fill="#fff">
                <use xmlns:xlink="http://www.w3.org/1999/xlink" xlink:href="#a"/>
            </mask>
            <use fill="#FF4785" xmlns:xlink="http://www.w3.org/1999/xlink" xlink:href="#a"/>
            <path fill="#FFF" fill-rule="nonzero"
                  d="M14.3 4.48l.06-1.62 1.35-.1.06 1.66a.1.1 0 0 1-.17.09l-.52-.41-.61.47a.1.1 0 0 1-.17-.1zm-1.73 3.55c0 .28 1.85.15 2.1-.05 0-1.86-1-2.84-2.84-2.84-1.83 0-2.86 1-2.86 2.49 0 2.6 3.51 2.65 3.51 4.06 0 .4-.2.64-.62.64-.56 0-.78-.29-.76-1.26 0-.2-2.13-.27-2.2 0-.16 2.35 1.3 3.03 2.98 3.03 1.63 0 2.9-.86 2.9-2.43 0-2.79-3.56-2.71-3.56-4.1 0-.55.42-.63.66-.63.26 0 .73.05.7 1.1z"
                  mask="url(#b)"/>
        </g>
    </g>
    <g id="node">
        <g id="SVGRepo_bgCarrier" stroke-width="0"/>
        <g id="SVGRepo_tracerCarrier" stroke-linecap="round" stroke-linejoin="round"/>
        <g id="SVGRepo_iconCarrier">
            <path fill="#4c8a5f"
                  d="M5.304 16.563c0-0.095-0.050-0.183-0.132-0.23l-2.192-1.261c-0.037-0.022-0.079-0.033-0.121-0.035-0.004 0-0.020 0-0.023 0-0.042 0.002-0.083 0.013-0.121 0.035l-2.191 1.261c-0.082 0.047-0.133 0.135-0.133 0.23l0.005 3.396c0 0.047 0.025 0.091 0.066 0.114 0.041 0.024 0.091 0.024 0.132 0l1.302-0.746c0.082-0.049 0.132-0.135 0.132-0.23v-1.587c0-0.094 0.050-0.182 0.132-0.229l0.555-0.319c0.041-0.024 0.086-0.035 0.133-0.035 0.045 0 0.091 0.012 0.132 0.035l0.554 0.319c0.082 0.047 0.132 0.135 0.132 0.229v1.587c0 0.095 0.051 0.181 0.133 0.23l1.302 0.746c0.041 0.024 0.092 0.024 0.132 0 0.040-0.023 0.066-0.067 0.066-0.114l0.004-3.396zM17.006 11.894c-0.041-0.023-0.091-0.022-0.131 0.002s-0.065 0.067-0.065 0.114v3.363c0 0.033-0.018 0.064-0.046 0.080s-0.064 0.017-0.093 0l-0.549-0.316c-0.082-0.047-0.183-0.047-0.265 0l-2.192 1.265c-0.082 0.047-0.133 0.135-0.133 0.229v2.531c0 0.095 0.050 0.182 0.132 0.229l2.192 1.266c0.082 0.047 0.183 0.047 0.265 0l2.193-1.266c0.082-0.048 0.132-0.135 0.132-0.229v-6.309c0-0.096-0.052-0.184-0.136-0.231l-1.305-0.728zM16.803 18.331c0 0.024-0.012 0.046-0.033 0.057l-0.753 0.434c-0.020 0.012-0.046 0.012-0.066 0l-0.753-0.434c-0.021-0.012-0.033-0.034-0.033-0.057v-0.869c0-0.024 0.013-0.046 0.033-0.057l0.753-0.435c0.020-0.012 0.046-0.012 0.066 0l0.753 0.435c0.020 0.012 0.033 0.034 0.033 0.057v0.869zM24.85 17.439c0.081-0.047 0.132-0.134 0.132-0.229v-0.613c0-0.095-0.050-0.181-0.132-0.229l-2.178-1.265c-0.082-0.048-0.183-0.048-0.265-0l-2.192 1.265c-0.082 0.047-0.132 0.135-0.132 0.229v2.53c0 0.095 0.051 0.183 0.134 0.23l2.178 1.241c0.080 0.046 0.179 0.046 0.26 0.001l1.317-0.732c0.041-0.023 0.067-0.067 0.068-0.115s-0.025-0.092-0.066-0.116l-2.206-1.266c-0.041-0.023-0.066-0.067-0.066-0.115v-0.793c0-0.047 0.025-0.091 0.066-0.115l0.687-0.395c0.041-0.023 0.091-0.023 0.132 0l0.687 0.395c0.041 0.024 0.066 0.067 0.066 0.115v0.624c0 0.047 0.025 0.091 0.066 0.115s0.092 0.023 0.133-0l1.312-0.763zM9.291 15.090c0.082-0.047 0.183-0.047 0.265 0l2.192 1.265c0.082 0.047 0.132 0.134 0.132 0.229v2.532c0 0.095-0.051 0.182-0.132 0.229l-2.192 1.266c-0.082 0.047-0.183 0.047-0.265 0l-2.192-1.266c-0.082-0.047-0.132-0.135-0.132-0.229v-2.532c0-0.095 0.050-0.182 0.132-0.229l2.192-1.265zM29.106 20.647c-0.075 0-0.151-0.020-0.217-0.058l-0.69-0.408c-0.103-0.058-0.052-0.078-0.019-0.090 0.137-0.048 0.165-0.059 0.312-0.142 0.015-0.009 0.036-0.005 0.052 0.004l0.53 0.315c0.019 0.011 0.046 0.011 0.064 0l2.067-1.193c0.019-0.011 0.031-0.033 0.031-0.056v-2.386c0-0.023-0.012-0.045-0.032-0.057l-2.066-1.192c-0.019-0.011-0.045-0.011-0.064 0l-2.066 1.192c-0.020 0.011-0.033 0.034-0.033 0.057v2.386c0 0.023 0.013 0.044 0.032 0.055l0.566 0.327c0.307 0.154 0.495-0.027 0.495-0.209v-2.355c0-0.033 0.027-0.059 0.060-0.059h0.262c0.033 0 0.060 0.026 0.060 0.059v2.355c0 0.41-0.223 0.645-0.612 0.645-0.119 0-0.214 0-0.476-0.129l-0.542-0.312c-0.134-0.077-0.217-0.222-0.217-0.377v-2.386c0-0.155 0.083-0.3 0.217-0.377l2.067-1.194c0.131-0.074 0.305-0.074 0.434 0l2.067 1.194c0.134 0.077 0.217 0.222 0.217 0.377v2.386c0 0.155-0.083 0.299-0.217 0.377l-2.067 1.193c-0.066 0.038-0.141 0.058-0.218 0.058zM29.745 19.004c-0.905 0-1.094-0.415-1.094-0.764 0-0.033 0.026-0.059 0.060-0.059h0.267c0.030 0 0.055 0.022 0.059 0.051 0.040 0.272 0.16 0.41 0.708 0.41 0.435 0 0.621-0.099 0.621-0.329 0-0.133-0.052-0.232-0.729-0.298-0.565-0.056-0.915-0.181-0.915-0.633 0-0.417 0.352-0.666 0.941-0.666 0.662 0 0.99 0.23 1.031 0.723 0.002 0.017-0.004 0.033-0.016 0.046s-0.027 0.019-0.044 0.019h-0.268c-0.028 0-0.052-0.020-0.058-0.047-0.064-0.286-0.221-0.378-0.645-0.378-0.475 0-0.531 0.166-0.531 0.29 0 0.151 0.065 0.194 0.707 0.279 0.635 0.084 0.937 0.203 0.937 0.649 0 0.45-0.375 0.708-1.030 0.708zM22.506 17.321c0.016-0.009 0.035-0.009 0.051 0l0.421 0.243c0.016 0.009 0.026 0.026 0.026 0.044v0.486c0 0.018-0.010 0.035-0.026 0.044l-0.421 0.243c-0.016 0.009-0.035 0.009-0.051 0l-0.42-0.243c-0.016-0.009-0.025-0.026-0.025-0.044v-0.486c0-0.018 0.010-0.035 0.025-0.044l0.42-0.243z"/>
        </g>
    </g>

    <!-- social  -->


    <g id="gitHub">
        <g clip-path="url(#clip0_1_4795)">
            <path d="M15.4995 0.812317C7.21661 0.812317 0.5 7.55409 0.5 15.8728C0.5 22.5255 4.79726 28.1704 10.76 30.1615C11.5095 30.3004 11.7829 29.8354 11.7829 29.4357C11.7829 29.0786 11.7698 28.1317 11.7626 26.8746C7.58919 27.7857 6.70903 24.8559 6.70903 24.8559C6.02774 23.1159 5.04452 22.6538 5.04452 22.6538C3.68194 21.7189 5.1471 21.7368 5.1471 21.7368C6.65194 21.8428 7.44403 23.2896 7.44403 23.2896C8.78339 25.5909 10.956 24.9255 11.8105 24.5399C11.9455 23.5673 12.334 22.903 12.7623 22.527C9.43226 22.1462 5.93097 20.8552 5.93097 15.0851C5.93097 13.4413 6.515 12.0967 7.47452 11.0428C7.31919 10.662 6.80484 9.13151 7.62064 7.05861C7.62064 7.05861 8.88064 6.65409 11.7456 8.60216C12.9423 8.26828 14.2255 8.10135 15.5015 8.09457C16.7745 8.10135 18.0587 8.2678 19.2573 8.60216C22.1198 6.65409 23.3779 7.05861 23.3779 7.05861C24.1956 9.13151 23.6813 10.662 23.5265 11.0428C24.4884 12.0967 25.069 13.4409 25.069 15.0851C25.069 20.8697 21.5619 22.1423 18.2203 22.5159C18.7589 22.9809 19.2384 23.8993 19.2384 25.3049C19.2384 27.3188 19.2205 28.9417 19.2205 29.4357C19.2205 29.8393 19.491 30.3081 20.2516 30.1596C26.2066 28.1646 30.5 22.5236 30.5 15.8728C30.5 7.55409 23.7834 0.812317 15.4995 0.812317Z"
                  fill="white"/>
            <path d="M15.4995 0.812317C7.21661 0.812317 0.5 7.55409 0.5 15.8728C0.5 22.5255 4.79726 28.1704 10.76 30.1615C11.5095 30.3004 11.7829 29.8354 11.7829 29.4357C11.7829 29.0786 11.7698 28.1317 11.7626 26.8746C7.58919 27.7857 6.70903 24.8559 6.70903 24.8559C6.02774 23.1159 5.04452 22.6538 5.04452 22.6538C3.68194 21.7189 5.1471 21.7368 5.1471 21.7368C6.65194 21.8428 7.44403 23.2896 7.44403 23.2896C8.78339 25.5909 10.956 24.9255 11.8105 24.5399C11.9455 23.5673 12.334 22.903 12.7623 22.527C9.43226 22.1462 5.93097 20.8552 5.93097 15.0851C5.93097 13.4413 6.515 12.0967 7.47452 11.0428C7.31919 10.662 6.80484 9.13151 7.62064 7.05861C7.62064 7.05861 8.88064 6.65409 11.7456 8.60216C12.9423 8.26828 14.2255 8.10135 15.5015 8.09457C16.7745 8.10135 18.0587 8.2678 19.2573 8.60216C22.1198 6.65409 23.3779 7.05861 23.3779 7.05861C24.1956 9.13151 23.6813 10.662 23.5265 11.0428C24.4884 12.0967 25.069 13.4409 25.069 15.0851C25.069 20.8697 21.5619 22.1423 18.2203 22.5159C18.7589 22.9809 19.2384 23.8993 19.2384 25.3049C19.2384 27.3188 19.2205 28.9417 19.2205 29.4357C19.2205 29.8393 19.491 30.3081 20.2516 30.1596C26.2066 28.1646 30.5 22.5236 30.5 15.8728C30.5 7.55409 23.7834 0.812317 15.4995 0.812317Z"
                  fill="white"/>
            <path d="M23.3929 7.10059C24.1869 9.15123 23.6803 10.6648 23.526 11.0427C24.4879 12.0966 25.0686 13.4407 25.0686 15.0849C25.0686 20.8696 21.5615 22.1422 18.2198 22.5157C18.7584 22.9807 19.2379 23.8991 19.2379 25.3048C19.2379 27.3187 19.22 28.9416 19.22 29.4356C19.22 29.8391 19.4905 30.308 20.2511 30.1595C26.2066 28.1645 30.5 22.5235 30.5 15.8727C30.5 14.0848 30.1884 12.3709 29.6189 10.7799C27.5508 8.60252 25.249 7.15236 23.3929 7.10059Z"
                  fill="white"/>
            <path d="M12.1719 23.3219C12.3403 22.9823 12.546 22.7181 12.7623 22.5269C10.9371 22.3179 9.06258 21.8306 7.73919 20.486C8.75726 22.1805 10.415 22.9513 12.1719 23.3219Z"
                  fill="white"/>
            <path d="M1.28097 16.888C1.28097 8.56925 7.99758 1.82748 16.2805 1.82748C20.8797 1.82748 24.9935 3.90764 27.7444 7.17958C25.0274 3.32796 20.5574 0.812317 15.4995 0.812317C7.21661 0.812317 0.5 7.55409 0.5 15.8728C0.5 19.5817 1.8379 22.9751 4.05355 25.5981C2.31113 23.1386 1.28097 20.1357 1.28097 16.888Z"
                  fill="white"/>
            <path d="M20.0189 26.3205C20.0189 24.9154 19.5394 23.9955 19.0008 23.5305C22.3424 23.158 25.85 21.8844 25.85 16.1002C25.85 14.456 25.2694 13.1123 24.3065 12.0584C24.4623 11.6776 24.9776 10.1467 24.1579 8.07425C24.1579 8.07425 24.0021 8.02634 23.6803 8.04473C24.0316 9.60763 23.6552 10.7254 23.526 11.0428C24.4879 12.0967 25.0685 13.4409 25.0685 15.0851C25.0685 20.8697 21.5615 22.1423 18.2198 22.5159C18.7584 22.9809 19.2379 23.8992 19.2379 25.3049C19.2379 27.3188 19.22 28.9417 19.22 29.4357C19.22 29.7909 19.4315 30.1959 20.0015 30.1862C20.0053 29.5054 20.0189 28.06 20.0189 26.3205Z"
                  fill="white"/>
            <path d="M7.60468 26.1448C7.91968 26.7932 8.97839 28.3464 11.7713 28.0193C11.7674 27.6777 11.7645 27.295 11.7626 26.8745C9.6079 27.3448 8.33581 26.7903 7.60468 26.1448Z"
                  fill="white"/>
            <path d="M8.14323 24.1726C8.04694 24.0274 7.86645 23.7811 7.60468 23.5349C7.77452 23.7869 7.955 23.9984 8.14323 24.1726Z"
                  fill="white"/>
        </g>
        <defs>
            <clipPath id="clip0_1_4795">
                <rect width="30" height="30" fill="white" transform="translate(0.5 0.5)"/>
            </clipPath>
        </defs>
    </g>
    <!-- design  -->
    <g id="logo">
        <svg xmlns="http://www.w3.org/2000/svg" width="180" height="180" viewBox="0 0 100 100">
            <text x="10" y="50" font-size="48" font-family="Arial" fill="black">[0]</text>
        </svg>
    </g>

    <g id="n">
        <text x="10" y="30" font-size="24" font-family="Arial" fill="black">1101110</text>
    </g>
    <g id="o">
        <text x="10" y="30" font-size="24" font-family="Arial" fill="black">1101111</text>
    </g>
    <g id="t">
        <text x="10" y="30" font-size="24" font-family="Arial" fill="black">1110100</text>
    </g>
    <g id="h">
        <text x="10" y="30" font-size="24" font-family="Arial" fill="black">1101000</text>
    </g>
    <g id="i">
        <text x="10" y="30" font-size="24" font-family="Arial" fill="black">1101001</text>
    </g>
    <g id="g">
        <text x="10" y="30" font-size="24" font-family="Arial" fill="black">1100111</text>
    </g>
    <g id="s">
        <text x="10" y="30" font-size="24" font-family="Arial" fill="black">1110011</text>
    </g>
    <g id="r">
        <text x="10" y="30" font-size="24" font-family="Arial" fill="black">1110010</text>
    </g>
    <g id="u">
        <text x="10" y="30" font-size="24" font-family="Arial" fill="black">1110101</text>
    </g>
    <g id="e">
        <text x="10" y="30" font-size="24" font-family="Arial" fill="black">1100101</text>
    </g>
    <g id="v">
        <text x="10" y="30" font-size="24" font-family="Arial" fill="black">1110110</text>
    </g>
    <g id="y">
        <text x="10" y="30" font-size="24" font-family="Arial" fill="black">1111001</text>
    </g>
    <g id="p">
        <text x="10" y="30" font-size="24" font-family="Arial" fill="black">1110000</text>
    </g>
    <g id="m">
        <text x="10" y="30" font-size="24" font-family="Arial" fill="black">1101101</text>
    </g>
    <g id="d">
        <text x="10" y="30" font-size="24" font-family="Arial" fill="black">1100100</text>
    </g>


</svg>
