<?xml version="1.0" standalone="no"?>
<!DOCTYPE svg PUBLIC "-//W3C//DTD SVG 20010904//EN"
 "http://www.w3.org/TR/2001/REC-SVG-20010904/DTD/svg10.dtd">
<svg version="1.0" xmlns="http://www.w3.org/2000/svg"
 width="192.000000pt" height="192.000000pt" viewBox="0 0 192.000000 192.000000"
 preserveAspectRatio="xMidYMid meet">
<metadata>
Created by potrace 1.14, written by Peter Selinger 2001-2017
</metadata>
<g transform="translate(0.000000,192.000000) scale(0.100000,-0.100000)"
fill="#f2ea52" stroke="none">
<path d="M987 1810 c-63 -24 -215 -148 -265 -216 -48 -64 -152 -264 -152 -291
0 -28 20 -43 57 -43 25 0 36 5 42 22 8 22 8 22 14 -3 3 -13 9 -51 13 -84 9
-78 37 -159 71 -204 33 -44 47 -56 96 -81 37 -21 52 -60 22 -60 -24 0 -125 41
-125 51 0 5 5 9 10 9 16 0 11 26 -8 43 -60 55 -136 -40 -88 -109 12 -17 13
-34 5 -92 -13 -96 -7 -107 70 -115 34 -4 72 -2 86 3 33 13 45 13 45 0 0 -5 -7
-10 -15 -10 -11 0 -15 -11 -15 -35 0 -28 5 -37 22 -44 20 -7 13 -13 -62 -51
-47 -23 -106 -59 -132 -79 -45 -34 -47 -38 -48 -87 l0 -51 -67 -6 c-38 -4 -89
-7 -114 -7 -46 0 -46 0 -53 37 -9 58 -7 160 3 144 7 -11 28 -12 112 -5 l104 9
-2 170 c-5 364 -14 533 -29 539 -8 3 -58 -4 -112 -15 -53 -11 -158 -25 -232
-31 -74 -6 -138 -13 -141 -17 -4 -3 -1 -52 6 -107 7 -56 16 -201 20 -322 l7
-220 30 -6 c17 -3 48 -6 70 -6 l40 0 -7 -52 c-4 -29 -11 -69 -16 -89 -9 -34
-12 -37 -59 -43 -38 -5 -54 -13 -66 -32 -30 -45 -14 -49 226 -50 120 -1 224
-5 231 -10 18 -11 388 -14 469 -4 36 4 108 13 160 20 52 6 118 20 145 31 31
12 86 21 141 23 105 6 147 18 142 44 -3 14 -15 17 -70 17 l-67 1 -36 47 c-39
51 -51 55 -114 32 l-42 -14 7 34 c5 28 1 40 -20 66 -28 33 -26 48 12 83 12 10
18 24 15 32 -4 11 5 14 41 14 45 0 45 0 40 -29 -8 -37 9 -48 29 -18 9 14 33
27 65 36 54 13 76 39 43 48 -18 5 -18 7 9 29 18 16 30 36 32 57 3 28 7 32 36
35 40 4 40 10 2 42 l-30 25 57 90 c116 185 203 376 242 531 35 139 35 141 11
154 -18 10 -34 7 -88 -16 -88 -36 -92 -40 -92 -83 0 -80 -87 -377 -158 -541
-32 -73 -41 -85 -64 -88 -31 -4 -43 -26 -22 -42 22 -19 17 -30 -16 -30 -32 0
-167 63 -209 98 l-25 19 42 27 c24 15 56 26 76 26 77 0 136 48 136 110 0 37
-28 80 -61 93 -11 5 -10 9 6 22 16 13 33 16 86 11 115 -10 117 24 10 239 -80
160 -136 231 -239 298 -73 48 -187 97 -224 97 -13 -1 -45 -9 -71 -20z m115
-466 c46 -8 107 -22 136 -30 l52 -15 0 -72 c0 -85 10 -177 19 -177 4 0 15 15
26 33 10 17 23 35 29 39 34 23 93 -12 83 -49 -4 -16 -6 -15 -12 4 -7 23 -38
39 -55 28 -16 -10 -12 -23 7 -21 10 0 19 -7 21 -18 3 -15 0 -18 -18 -13 -15 4
-20 2 -17 -8 3 -7 0 -18 -6 -24 -9 -9 -8 -14 3 -22 11 -8 4 -9 -27 -5 -23 3
-44 2 -47 -3 -11 -16 -97 -60 -149 -76 -64 -19 -170 -20 -186 -1 -6 7 -22 11
-35 9 -35 -7 -102 32 -136 78 -28 40 -53 103 -64 167 l-6 32 53 -35 c28 -19
57 -35 64 -35 29 0 9 22 -57 61 -69 41 -70 42 -71 85 -1 24 -2 50 -3 56 -3 38
222 45 396 12z m342 -308 c-7 -19 -28 -26 -45 -15 -11 7 -9 9 8 9 12 0 25 5
28 10 9 15 15 12 9 -4z m-706 -133 c0 -21 1 -46 2 -57 2 -30 -10 -33 -31 -7
-18 22 -26 81 -12 94 3 4 14 7 23 7 12 0 17 -10 18 -37z m217 -33 c3 -5 -3
-10 -14 -10 -12 0 -21 5 -21 10 0 6 6 10 14 10 8 0 18 -4 21 -10z m159 -33
l-17 -36 -23 32 -22 32 37 5 c20 3 37 5 39 4 2 -1 -5 -18 -14 -37z m421 -105
c28 -22 19 -44 -26 -68 -58 -30 -78 2 -33 55 30 36 29 36 59 13z m-103 -389
c29 -34 26 -38 -23 -40 -46 -3 -49 -1 -49 21 0 37 46 49 72 19z"/>
<path d="M1106 1189 c-10 -6 -41 -19 -69 -29 -57 -20 -79 -47 -31 -37 44 9
144 55 144 67 0 13 -20 12 -44 -1z"/>
<path d="M795 1109 c-10 -15 15 -69 31 -69 14 0 19 36 8 64 -7 18 -30 21 -39
5z"/>
<path d="M1043 1094 c-9 -23 10 -69 27 -69 17 0 24 27 16 61 -7 27 -33 32 -43
8z"/>
<path d="M900 973 c0 -20 3 -24 9 -14 5 8 14 10 22 6 9 -6 11 -3 6 9 -4 10 -7
20 -7 22 0 2 -7 4 -15 4 -10 0 -15 -10 -15 -27z"/>
<path d="M1106 981 c-16 -17 -16 -19 3 -24 22 -5 46 16 36 33 -9 15 -20 12
-39 -9z"/>
<path d="M1708 1629 c-20 -10 -52 -38 -72 -62 -34 -42 -91 -155 -83 -164 2 -2
23 27 45 65 23 38 67 93 98 121 31 29 55 53 53 55 -2 2 -21 -4 -41 -15z"/>
<path d="M417 1573 c-15 -15 -5 -23 28 -23 67 0 96 -62 56 -118 -26 -35 -30
-65 -11 -69 10 -2 16 4 17 17 1 11 11 33 22 49 30 42 27 86 -8 122 -21 21 -39
29 -64 29 -18 0 -37 -3 -40 -7z"/>
<path d="M13 1523 c-20 -8 -15 -51 7 -63 11 -6 20 -15 20 -21 0 -6 -9 -8 -20
-4 -14 5 -20 2 -20 -9 0 -21 43 -21 60 -1 16 19 6 45 -20 52 -11 3 -20 12 -20
20 0 11 6 14 23 9 12 -3 25 -6 30 -6 4 0 7 -12 7 -26 0 -36 17 -64 40 -64 24
0 29 8 36 64 9 59 -13 63 -22 4 -6 -37 -8 -39 -21 -23 -7 11 -13 29 -13 42 0
15 -5 21 -14 17 -8 -3 -17 -1 -21 5 -6 11 -31 13 -52 4z"/>
<path d="M177 1479 c-3 -23 -3 -48 0 -55 9 -25 23 -15 23 19 l1 32 15 -28 c15
-28 16 -28 35 -11 18 16 19 16 19 -4 0 -13 6 -22 15 -22 11 0 15 12 15 49 0
28 -5 53 -12 57 -10 7 -32 -14 -41 -40 -2 -6 -14 1 -26 17 -30 37 -37 34 -44
-14z"/>
<path d="M323 1481 c13 -99 87 -96 87 3 0 48 -18 46 -22 -1 -4 -50 -31 -52
-38 -4 -3 19 -11 36 -19 39 -11 4 -13 -4 -8 -37z"/>
<path d="M27 1329 c-25 -14 -21 -44 9 -64 19 -12 23 -20 15 -28 -7 -7 -15 -6
-27 4 -14 12 -16 11 -13 -6 3 -15 12 -20 34 -20 25 0 31 4 33 27 3 22 -2 30
-22 40 -33 15 -34 30 -1 22 29 -7 34 10 7 25 -11 6 -24 6 -35 0z"/>
<path d="M120 1279 c-13 -55 -9 -69 16 -48 14 11 18 11 29 -4 15 -21 25 -22
25 -3 0 21 -40 106 -49 106 -5 0 -14 -23 -21 -51z"/>
<path d="M210 1277 c0 -63 9 -78 25 -40 l12 28 16 -30 16 -30 15 35 15 35 1
-32 c0 -18 5 -33 10 -33 6 0 10 27 10 60 0 67 -11 75 -38 30 l-18 -29 -18 29
c-28 48 -46 39 -46 -23z"/>
<path d="M366 1323 c-3 -3 -6 -21 -6 -39 0 -40 29 -78 52 -69 19 8 43 78 34
101 -9 25 -26 15 -26 -15 0 -16 -3 -36 -6 -45 -10 -25 -24 -8 -24 29 0 33 -11
51 -24 38z"/>
<path d="M488 1293 c7 -3 16 -2 19 1 4 3 -2 6 -13 5 -11 0 -14 -3 -6 -6z"/>
<path d="M490 1261 c0 -6 5 -13 10 -16 6 -3 10 1 10 9 0 9 -4 16 -10 16 -5 0
-10 -4 -10 -9z"/>
<path d="M1890 15 c0 -8 7 -15 15 -15 8 0 15 7 15 15 0 8 -7 15 -15 15 -8 0
-15 -7 -15 -15z"/>
</g>
</svg>
