<svg width="180" height="110" viewBox="0 0 180 110" fill="none" xmlns="http://www.w3.org/2000/svg">
<path d="M28.1864 98.9636V20.4181H46.35V26.4318H35.0591V92.95H46.35V98.9636H28.1864ZM124.412 20.4181V98.9636H106.249V92.95H117.539V26.4318H106.249V20.4181H124.412Z" fill="#F88A0E"/>
<path d="M76.3031 87.059C71.6804 87.059 67.7429 85.8011 64.4906 83.2852C61.2384 80.7488 58.7531 77.0772 57.0349 72.2704C55.3168 67.4431 54.4577 61.6136 54.4577 54.7818C54.4577 47.9909 55.3168 42.192 57.0349 37.3852C58.7736 32.5579 61.269 28.8761 64.5213 26.3397C67.794 23.7829 71.7213 22.5045 76.3031 22.5045C80.8849 22.5045 84.802 23.7829 88.0543 26.3397C91.327 28.8761 93.8224 32.5579 95.5406 37.3852C97.2793 42.192 98.1486 47.9909 98.1486 54.7818C98.1486 61.6136 97.2895 67.4431 95.5713 72.2704C93.8531 77.0772 91.3679 80.7488 88.1156 83.2852C84.8633 85.8011 80.9258 87.059 76.3031 87.059ZM76.3031 80.309C80.8849 80.309 84.444 78.1 86.9804 73.6818C89.5168 69.2636 90.7849 62.9636 90.7849 54.7818C90.7849 49.3409 90.202 44.7079 89.0361 40.8829C87.8906 37.0579 86.2338 34.1431 84.0656 32.1386C81.9179 30.134 79.3304 29.1318 76.3031 29.1318C71.7622 29.1318 68.2134 31.3715 65.6565 35.8511C63.0997 40.3102 61.8213 46.6204 61.8213 54.7818C61.8213 60.2227 62.394 64.8454 63.5395 68.65C64.6849 72.4545 66.3315 75.3488 68.4793 77.3329C70.6474 79.317 73.2554 80.309 76.3031 80.309Z" fill="#15A912"/>
<path d="M28.1864 98.9636H27.1864V99.9636H28.1864V98.9636ZM28.1864 20.4181V19.4181H27.1864V20.4181H28.1864ZM46.35 20.4181H47.35V19.4181H46.35V20.4181ZM46.35 26.4318V27.4318H47.35V26.4318H46.35ZM35.0591 26.4318V25.4318H34.0591V26.4318H35.0591ZM35.0591 92.95H34.0591V93.95H35.0591V92.95ZM46.35 92.95H47.35V91.95H46.35V92.95ZM46.35 98.9636V99.9636H47.35V98.9636H46.35ZM29.1864 98.9636V20.4181H27.1864V98.9636H29.1864ZM28.1864 21.4181H46.35V19.4181H28.1864V21.4181ZM45.35 20.4181V26.4318H47.35V20.4181H45.35ZM46.35 25.4318H35.0591V27.4318H46.35V25.4318ZM34.0591 26.4318V92.95H36.0591V26.4318H34.0591ZM35.0591 93.95H46.35V91.95H35.0591V93.95ZM45.35 92.95V98.9636H47.35V92.95H45.35ZM46.35 97.9636H28.1864V99.9636H46.35V97.9636ZM64.4906 83.2852L63.8756 84.0737L63.8788 84.0761L64.4906 83.2852ZM57.0349 72.2704L56.0928 72.6057L56.0933 72.607L57.0349 72.2704ZM57.0349 37.3852L56.0941 37.0463L56.0933 37.0486L57.0349 37.3852ZM64.5213 26.3397L65.1363 27.1283L65.1369 27.1277L64.5213 26.3397ZM88.0543 26.3397L87.4362 27.1259L87.4417 27.1301L88.0543 26.3397ZM95.5406 37.3852L94.5985 37.7205L94.6002 37.7253L95.5406 37.3852ZM95.5713 72.2704L96.513 72.607L96.5134 72.6057L95.5713 72.2704ZM88.1156 83.2852L88.7275 84.0761L88.7306 84.0737L88.1156 83.2852ZM86.9804 73.6818L86.1131 73.1839L86.1131 73.1839L86.9804 73.6818ZM89.0361 40.8829L88.0781 41.1698L88.0795 41.1745L89.0361 40.8829ZM84.0656 32.1386L83.3833 32.8697L83.3868 32.8729L84.0656 32.1386ZM65.6565 35.8511L66.524 36.3485L66.525 36.3468L65.6565 35.8511ZM63.5395 68.65L62.5819 68.9382L62.5819 68.9382L63.5395 68.65ZM68.4793 77.3329L67.8007 78.0674L67.8042 78.0706L68.4793 77.3329ZM76.3031 86.059C71.8729 86.059 68.158 84.8579 65.1025 82.4942L63.8788 84.0761C67.3278 86.7443 71.4879 88.059 76.3031 88.059V86.059ZM65.1056 82.4966C62.0348 80.1018 59.6461 76.6045 57.9766 71.9338L56.0933 72.607C57.8601 77.55 60.4419 81.3958 63.8757 84.0737L65.1056 82.4966ZM57.977 71.9351C56.3076 67.2446 55.4577 61.5351 55.4577 54.7818H53.4577C53.4577 61.6921 54.326 67.6416 56.0928 72.6057L57.977 71.9351ZM55.4577 54.7818C55.4577 48.07 56.3074 42.3915 57.9766 37.7218L56.0933 37.0486C54.3261 41.9925 53.4577 47.9117 53.4577 54.7818H55.4577ZM57.9758 37.724C59.666 33.0312 62.0654 29.5232 65.1363 27.1283L63.9063 25.5512C60.4726 28.229 57.8811 32.0846 56.0941 37.0463L57.9758 37.724ZM65.1369 27.1277C68.2155 24.7226 71.92 23.5045 76.3031 23.5045V21.5045C71.5226 21.5045 67.3725 22.8432 63.9057 25.5517L65.1369 27.1277ZM76.3031 23.5045C80.6863 23.5045 84.3792 24.7226 87.4362 27.1259L88.6723 25.5536C85.2247 22.8432 81.0836 21.5045 76.3031 21.5045V23.5045ZM87.4417 27.1301C90.531 29.5244 92.9292 33.0305 94.5985 37.7205L96.4827 37.0499C94.7157 32.0853 92.1229 28.2278 88.6668 25.5493L87.4417 27.1301ZM94.6002 37.7253C96.2889 42.3938 97.1486 48.071 97.1486 54.7818H99.1486C99.1486 47.9107 98.2697 41.9902 96.481 37.045L94.6002 37.7253ZM97.1486 54.7818C97.1486 61.5351 96.2987 67.2446 94.6292 71.9351L96.5134 72.6057C98.2803 67.6416 99.1486 61.6921 99.1486 54.7818H97.1486ZM94.6297 71.9338C92.9601 76.6045 90.5714 80.1018 87.5007 82.4966L88.7306 84.0737C92.1644 81.3958 94.7461 77.55 96.513 72.607L94.6297 71.9338ZM87.5037 82.4942C84.4483 84.8579 80.7333 86.059 76.3031 86.059V88.059C81.1184 88.059 85.2784 86.7443 88.7275 84.0761L87.5037 82.4942ZM76.3031 81.309C81.2891 81.309 85.1571 78.8664 87.8476 74.1796L86.1131 73.1839C83.7309 77.3335 80.4808 79.309 76.3031 79.309V81.309ZM87.8476 74.1796C90.5086 69.5445 91.7849 63.043 91.7849 54.7818H89.7849C89.7849 62.8842 88.5249 68.9827 86.1131 73.1839L87.8476 74.1796ZM91.7849 54.7818C91.7849 49.2751 91.1956 44.538 89.9926 40.5913L88.0795 41.1745C89.2084 44.8779 89.7849 49.4066 89.7849 54.7818H91.7849ZM89.994 40.596C88.8147 36.6578 87.0824 33.5658 84.7445 31.4043L83.3868 32.8729C85.3852 34.7204 86.9666 37.458 88.0781 41.1698L89.994 40.596ZM84.7479 31.4075C82.4089 29.2244 79.5752 28.1318 76.3031 28.1318V30.1318C79.0856 30.1318 81.4269 31.0437 83.3833 32.8696L84.7479 31.4075ZM76.3031 28.1318C71.3481 28.1318 67.4937 30.615 64.788 35.3554L66.525 36.3468C68.933 32.1281 72.1763 30.1318 76.3031 30.1318V28.1318ZM64.789 35.3537C62.1086 40.0282 60.8213 46.5387 60.8213 54.7818H62.8213C62.8213 46.7022 64.0908 40.5921 66.524 36.3485L64.789 35.3537ZM60.8213 54.7818C60.8213 60.287 61.4001 65.0129 62.5819 68.9382L64.497 68.3617C63.388 64.6779 62.8213 60.1584 62.8213 54.7818H60.8213ZM62.5819 68.9382C63.7611 72.8547 65.4829 75.9263 67.8007 78.0674L69.1578 76.5984C67.1802 74.7714 65.6088 72.0543 64.497 68.3617L62.5819 68.9382ZM67.8042 78.0706C70.1641 80.2302 73.0157 81.309 76.3031 81.309V79.309C73.4951 79.309 71.1308 78.4038 69.1544 76.5952L67.8042 78.0706ZM124.412 20.4181H125.412V19.4181H124.412V20.4181ZM124.412 98.9636V99.9636H125.412V98.9636H124.412ZM106.249 98.9636H105.249V99.9636H106.249V98.9636ZM106.249 92.95V91.95H105.249V92.95H106.249ZM117.539 92.95V93.95H118.539V92.95H117.539ZM117.539 26.4318H118.539V25.4318H117.539V26.4318ZM106.249 26.4318H105.249V27.4318H106.249V26.4318ZM106.249 20.4181V19.4181H105.249V20.4181H106.249ZM123.412 20.4181V98.9636H125.412V20.4181H123.412ZM124.412 97.9636H106.249V99.9636H124.412V97.9636ZM107.249 98.9636V92.95H105.249V98.9636H107.249ZM106.249 93.95H117.539V91.95H106.249V93.95ZM118.539 92.95V26.4318H116.539V92.95H118.539ZM117.539 25.4318H106.249V27.4318H117.539V25.4318ZM107.249 26.4318V20.4181H105.249V26.4318H107.249ZM106.249 21.4181H124.412V19.4181H106.249V21.4181Z" fill="black" fill-opacity="0.08"/>
</svg>
