<?xml version="1.0" standalone="no"?>
<!DOCTYPE svg PUBLIC "-//W3C//DTD SVG 20010904//EN"
 "http://www.w3.org/TR/2001/REC-SVG-20010904/DTD/svg10.dtd">
<svg version="1.0" xmlns="http://www.w3.org/2000/svg"
 width="192.000000pt" height="192.000000pt" viewBox="0 0 192.000000 192.000000"
 preserveAspectRatio="xMidYMid meet" fill="red">

<g transform="translate(0.000000,192.000000) scale(0.100000,-0.100000)"
fill="#000000" stroke="none">
<path d="M997 1814 c-85 -33 -235 -158 -291 -242 -53 -82 -136 -245 -136 -270
0 -27 20 -42 57 -42 26 0 36 5 42 23 10 25 10 22 31 -117 19 -121 77 -214 162
-257 25 -13 38 -26 38 -40 0 -18 -4 -20 -32 -14 -49 11 -108 36 -108 46 0 5 5
9 10 9 16 0 11 26 -8 43 -60 55 -136 -40 -87 -109 12 -17 12 -33 4 -89 -15
-96 -7 -110 69 -118 32 -4 74 -2 93 3 41 12 39 12 39 0 0 -5 -7 -10 -15 -10
-11 0 -15 -11 -15 -35 0 -28 5 -37 22 -44 20 -7 12 -13 -61 -50 -46 -23 -105
-58 -132 -79 -46 -36 -48 -39 -49 -88 l0 -51 -106 -7 c-71 -5 -110 -4 -117 3
-6 6 -12 50 -14 98 -3 57 -1 83 5 74 8 -11 30 -12 113 -5 l104 9 -2 180 c-5
361 -14 523 -29 529 -8 3 -58 -4 -112 -15 -53 -11 -158 -25 -232 -31 -74 -6
-138 -13 -141 -17 -3 -3 -1 -54 6 -112 7 -58 16 -202 20 -321 l7 -216 30 -6
c17 -3 48 -6 69 -6 44 0 44 1 28 -86 -17 -96 -15 -94 -65 -94 -48 0 -88 -28
-82 -58 5 -26 59 -32 258 -31 120 1 195 -2 213 -10 33 -13 358 -14 482 -1 165
17 251 31 295 49 27 11 84 21 143 24 107 7 137 17 137 47 0 18 -7 20 -72 20
l-73 1 -33 44 c-36 49 -48 52 -111 30 l-42 -14 7 34 c5 28 1 40 -20 66 -28 33
-26 48 12 83 12 10 18 24 15 32 -4 11 5 14 41 14 45 0 45 0 40 -29 -8 -38 10
-47 30 -16 9 14 24 25 33 25 28 0 82 23 88 38 3 8 -3 16 -14 19 -18 5 -18 7 9
29 18 16 30 36 32 57 3 28 7 32 36 35 40 4 40 10 2 42 l-30 25 57 90 c116 185
203 376 242 531 35 138 35 141 11 154 -17 9 -35 5 -99 -21 l-78 -32 -6 -66
c-7 -82 -73 -315 -127 -451 -58 -146 -66 -160 -94 -160 -30 0 -37 -18 -18 -47
14 -22 13 -23 -17 -23 -32 0 -167 62 -210 98 l-25 19 42 27 c24 15 56 26 76
26 77 0 136 48 136 110 0 37 -29 81 -61 92 -11 5 -12 8 -1 19 9 10 38 14 89
14 88 0 100 10 89 69 -13 69 -142 308 -201 374 -73 80 -168 140 -290 182 -49
16 -51 16 -108 -6z m105 -470 c46 -8 107 -22 136 -30 l52 -15 0 -72 c0 -85 10
-177 19 -177 4 0 15 15 26 33 10 17 23 35 29 39 34 23 93 -12 83 -49 -4 -16
-6 -15 -12 4 -7 23 -38 39 -55 28 -16 -10 -12 -23 7 -21 10 0 19 -7 21 -18 3
-15 0 -18 -18 -13 -15 4 -20 2 -17 -8 3 -7 0 -18 -6 -24 -9 -9 -8 -14 3 -22
11 -8 5 -9 -23 -5 -30 4 -47 -1 -85 -24 -26 -17 -73 -39 -104 -50 -68 -24
-179 -27 -197 -6 -6 7 -22 11 -35 9 -35 -7 -102 32 -136 78 -28 40 -53 103
-64 167 l-6 32 53 -35 c28 -19 57 -35 64 -35 29 0 9 22 -57 61 -69 41 -70 42
-71 85 -1 24 -2 50 -3 56 -3 38 222 45 396 12z m342 -308 c-7 -19 -28 -26 -45
-15 -11 7 -9 9 8 9 12 0 25 5 28 10 9 15 15 12 9 -4z m-706 -133 c0 -21 1 -46
2 -57 2 -30 -10 -33 -31 -7 -18 22 -26 81 -12 94 3 4 14 7 23 7 12 0 17 -10
18 -37z m217 -33 c3 -5 -3 -10 -14 -10 -12 0 -21 5 -21 10 0 6 6 10 14 10 8 0
18 -4 21 -10z m159 -33 l-17 -36 -23 32 -22 32 37 5 c20 3 37 5 39 4 2 -1 -5
-18 -14 -37z m421 -105 c28 -22 19 -44 -26 -68 -58 -30 -78 2 -33 55 30 36 29
36 59 13z m-103 -389 c29 -34 26 -38 -23 -40 -46 -3 -49 -1 -49 21 0 37 46 49
72 19z"/>
<path d="M1106 1189 c-10 -6 -41 -19 -69 -29 -57 -20 -79 -47 -31 -37 44 9
144 55 144 67 0 13 -20 12 -44 -1z"/>
<path d="M795 1109 c-10 -15 15 -69 31 -69 14 0 19 36 8 64 -7 18 -30 21 -39
5z"/>
<path d="M1043 1094 c-9 -23 10 -69 27 -69 17 0 24 27 16 61 -7 27 -33 32 -43
8z"/>
<path d="M900 973 c0 -20 3 -24 9 -14 5 8 14 10 22 6 9 -6 11 -3 6 9 -4 10 -7
20 -7 22 0 2 -7 4 -15 4 -10 0 -15 -10 -15 -27z"/>
<path d="M1106 981 c-16 -17 -16 -19 3 -24 22 -5 46 16 36 33 -9 15 -20 12
-39 -9z"/>
<path d="M1708 1629 c-20 -10 -52 -38 -72 -62 -36 -45 -91 -155 -81 -165 6 -6
4 -10 35 53 14 28 56 81 93 119 37 38 66 70 65 71 -2 2 -20 -5 -40 -16z"/>
<path d="M417 1573 c-18 -17 -5 -29 27 -25 25 3 40 -2 55 -17 28 -28 26 -53
-5 -106 -25 -43 -25 -65 -1 -65 7 0 13 9 14 20 1 11 11 33 22 49 30 42 27 86
-8 122 -21 21 -39 29 -64 29 -18 0 -37 -3 -40 -7z"/>
<path d="M13 1523 c-20 -8 -15 -51 7 -63 11 -6 20 -15 20 -21 0 -6 -9 -8 -20
-4 -14 5 -20 2 -20 -10 0 -22 49 -16 64 8 9 15 6 22 -19 42 -33 27 -30 39 9
29 19 -4 26 -13 26 -31 0 -60 51 -87 70 -37 13 33 13 84 0 84 -5 0 -13 -19
-16 -42 -6 -37 -8 -39 -21 -23 -7 11 -13 29 -13 42 0 15 -5 21 -14 17 -8 -3
-17 -1 -21 5 -6 11 -31 13 -52 4z"/>
<path d="M176 1474 c-3 -25 -3 -50 0 -55 11 -18 24 -8 24 19 l0 27 18 -23 c17
-22 19 -22 32 -6 14 15 15 15 20 -5 9 -40 25 -27 28 23 4 57 -12 81 -33 52 -8
-10 -16 -24 -18 -30 -2 -6 -14 1 -26 17 -13 15 -26 27 -30 27 -5 0 -11 -21
-15 -46z"/>
<path d="M320 1488 c0 -63 55 -104 80 -59 13 24 13 91 1 91 -6 0 -11 -17 -13
-37 -4 -50 -31 -52 -38 -4 -7 47 -30 53 -30 9z"/>
<path d="M28 1329 c-26 -15 -22 -44 8 -64 19 -12 23 -20 15 -28 -7 -7 -15 -6
-27 4 -14 12 -16 11 -13 -6 3 -15 12 -20 34 -20 43 0 47 39 8 72 l-28 23 28
-6 c28 -6 35 4 15 24 -14 14 -18 14 -40 1z"/>
<path d="M120 1279 c-13 -55 -9 -69 16 -48 14 11 18 11 29 -4 15 -21 25 -22
25 -3 0 21 -40 106 -49 106 -5 0 -14 -23 -21 -51z"/>
<path d="M210 1277 c0 -63 9 -78 25 -40 l12 28 15 -29 15 -30 16 30 16 29 1
-27 c0 -27 15 -39 22 -18 6 20 -4 110 -13 110 -5 0 -17 -13 -27 -30 l-18 -29
-18 29 c-28 48 -46 39 -46 -23z"/>
<path d="M366 1323 c-3 -3 -6 -21 -6 -39 0 -40 29 -78 52 -69 20 8 44 76 35
99 -10 26 -27 18 -27 -13 0 -16 -3 -36 -6 -45 -10 -25 -24 -8 -24 29 0 33 -11
51 -24 38z"/>
<path d="M488 1293 c7 -3 16 -2 19 1 4 3 -2 6 -13 5 -11 0 -14 -3 -6 -6z"/>
<path d="M490 1255 c0 -8 5 -15 10 -15 6 0 10 7 10 15 0 8 -4 15 -10 15 -5 0
-10 -7 -10 -15z"/>
<path d="M1890 15 c0 -8 7 -15 15 -15 8 0 15 7 15 15 0 8 -7 15 -15 15 -8 0
-15 -7 -15 -15z"/>
</g>
</svg>
